<svg xmlns="http://www.w3.org/2000/svg" xmlns:xlink="http://www.w3.org/1999/xlink" viewBox="0 0 2000.2 1000"><defs><style>.cls-1,.cls-19{fill:none;}.cls-2{isolation:isolate;}.cls-3{clip-path:url(#clip-path);}.cls-4{fill:#4eb4e6;}.cls-5{fill:#f16b6c;}.cls-6{fill:url(#linear-gradient);}.cls-7{fill:#ec7458;}.cls-8{fill:#ef5023;}.cls-9{fill:#d54327;}.cls-10{fill:#ffe9cf;}.cls-11{fill:url(#linear-gradient-3);}.cls-12{fill:url(#linear-gradient-4);}.cls-13{fill:url(#linear-gradient-5);}.cls-14{fill:#414344;}.cls-15{fill:url(#linear-gradient-6);}.cls-16{fill:#e5cbb1;mix-blend-mode:multiply;}.cls-17{clip-path:url(#clip-path-2);}.cls-18{fill:#0ba14a;}.cls-19{stroke:#fff;stroke-miterlimit:10;}.cls-20{clip-path:url(#clip-path-3);}.cls-21{clip-path:url(#clip-path-4);}.cls-22{clip-path:url(#clip-path-5);}</style><clipPath id="clip-path" transform="translate(0.1)"><path class="cls-1" d="M1999.5,999.5V-1.5H990.5c54.36,49.27,125.67,129.53,154,243,38.77,155.31-68,253.15-18,396C1262,1025,1999.5,999.5,1999.5,999.5Z"/></clipPath><linearGradient id="linear-gradient" x1="1351.1" y1="334.17" x2="1626.93" y2="58.34" gradientUnits="userSpaceOnUse"><stop offset="0" stop-color="#f16b6c"/><stop offset="1" stop-color="#fff" stop-opacity="0"/></linearGradient><linearGradient id="linear-gradient-3" x1="2000.1" y1="770.06" x2="0.12" y2="770.06" gradientUnits="userSpaceOnUse"><stop offset="0" stop-color="#ed9914" stop-opacity="0.35"/><stop offset="1" stop-color="#fff" stop-opacity="0.2"/></linearGradient><linearGradient id="linear-gradient-4" x1="1738.53" y1="202.07" x2="1925.4" y2="15.2" gradientUnits="userSpaceOnUse"><stop offset="0" stop-color="#fff" stop-opacity="0"/><stop offset="1" stop-color="#f16b6c"/></linearGradient><linearGradient id="linear-gradient-5" x1="1587.51" y1="333.66" x2="1796.32" y2="124.86" gradientUnits="userSpaceOnUse"><stop offset="0" stop-color="#f16b6c" stop-opacity="0.5"/><stop offset="1" stop-color="#fff" stop-opacity="0"/></linearGradient><linearGradient id="linear-gradient-6" x1="1718.51" y1="152.16" x2="1718.51" y2="252.82" gradientUnits="userSpaceOnUse"><stop offset="0" stop-color="#ef1b5d" stop-opacity="0.55"/><stop offset="1" stop-color="#fff" stop-opacity="0"/></linearGradient><clipPath id="clip-path-2" transform="translate(0.1)"><path class="cls-1" d="M1886.87,494.74s39.71,31.78,61.18,0-7.51-123.15,32.21-115.21,10,139.48-17.18,151c-41.43,17.49-76.21-14.57-76.21-14.57Z"/></clipPath><clipPath id="clip-path-3" transform="translate(0.1)"><path class="cls-1" d="M1878.81,281.82s22.7,21.21,35,0-4.29-82.17,18.4-76.87,5.73,93.07-9.81,100.73c-23.68,11.66-43.56-9.72-43.56-9.72Z"/></clipPath><clipPath id="clip-path-4" transform="translate(0.1)"><path class="cls-1" d="M1876.75,426.69s-32.44,23.8-50,0,6.14-92.23-26.29-86.28-8.18,104.46,14,113.06c33.83,13.09,62.24-10.91,62.24-10.91Z"/></clipPath><clipPath id="clip-path-5" transform="translate(0.1)"><path class="cls-1" d="M1913.89,457.63c0,138.62-2,258-32,255-66.76-6.62-49-112.38-49-251s12.36-251,39.43-251S1913.89,319,1913.89,457.63Z"/></clipPath></defs><title>homePageIllustration</title><g class="cls-2"><g id="Layer_2" data-name="Layer 2"><g class="cls-3"><rect class="cls-4" x="0.1" y="12" width="1182.12" height="809.13"/><rect class="cls-5" x="0.18" width="1999.93" height="821.13"/><path class="cls-6" d="M1680.3,137a60.92,60.92,0,0,0-18.42,2.83A75.94,75.94,0,0,0,1615.2,109a81.89,81.89,0,0,0-93-19.24,95.34,95.34,0,0,0-166,11.91,63,63,0,0,0-84,46.94,59,59,0,0,0,28.53,110.69h379.6a61.15,61.15,0,0,0,0-122.29Z" transform="translate(0.1)"/><path class="cls-6" d="M1680.3,137a60.92,60.92,0,0,0-18.42,2.83A75.94,75.94,0,0,0,1615.2,109a81.89,81.89,0,0,0-93-19.24,95.34,95.34,0,0,0-166,11.91,63,63,0,0,0-84,46.94,59,59,0,0,0,28.53,110.69h379.6a61.15,61.15,0,0,0,0-122.29Z" transform="translate(0.1)"/><path class="cls-7" d="M0,366.89s340.59-77,383.93-77,268.5-16.15,268.5-16.15,120.37,5.11,144.2,0,147.67-27.35,175.53-27.35,35.08,4.07,64-5,149.66-26.34,162-31.41,68.11-12.16,68.11-12.16,130-10.1,142.42-16.19,68.11-5.05,89.78,0,49.51,17.27,71.19,15.24,55.72-2,80.48,5.1,117.62,27.78,151.67,30.16,123.82,10.52,161,8.5l37.15-2-.25,292.28L-.1,530.27Z" transform="translate(0.1)"/><path class="cls-8" d="M1387,539s-156.85-97-235.28-109.56S1014.45,396.05,992.26,394,928.8,371.71,885.46,371s-64-20.17-99.07-19.83-121.76-8-136.21-10.08S507.77,323,480.94,319.53s-132.08-9.73-142.4-17.39S225.58,266,196.41,266,.07,231.89.07,231.89V539Z" transform="translate(0.1)"/><path class="cls-9" d="M718.29,539s30.06-15.27,44.3-16.32,39.56-7.38,42.73-9,52.21-15.27,64.87-15.27,55.39-2.1,69.63-7.37,77.53-22.64,90.19-22.64,68-14.22,88.61-22.65,128.17-30,128.17-30l74.38-9.48h58.54l87-5.79s87-19,91.78-22.64S1693,339.42,1693,339.42,1825.94,312,1835.43,312s99.69-4.21,99.69-4.21H2000V539Z" transform="translate(0.1)"/><rect class="cls-10" x="0.12" y="540.13" width="1999.98" height="459.87"/><rect class="cls-11" x="0.12" y="540.13" width="1999.98" height="459.87"/><path class="cls-12" d="M1954.41,63.12a45.48,45.48,0,0,0-20.63,4.93,48.92,48.92,0,0,0-7.94-5.4,73,73,0,0,0-143.93-3.31c-.45,0-.9,0-1.35,0A40.46,40.46,0,0,0,1761.7,64a40.53,40.53,0,0,0-59.62-.87,46.06,46.06,0,0,0,8,91.42h244.36a45.69,45.69,0,0,0,0-91.38Z" transform="translate(0.1)"/><path class="cls-13" d="M1836.71,184.43a46.19,46.19,0,0,0-13.94,2.14,57.53,57.53,0,0,0-35.33-23.35,62,62,0,0,0-70.39-14.56,72.17,72.17,0,0,0-125.67,9,47.72,47.72,0,0,0-63.62,35.53,44.68,44.68,0,0,0,21.6,83.79h287.35a46.29,46.29,0,1,0,0-92.57Z" transform="translate(0.1)"/><path class="cls-14" d="M1859.26,201.24s-12.41.28-27,.58c-1.14-5.28-6.3-29.52-6.45-32.78a43.22,43.22,0,0,0-.57-6c19-1.52,37.3-3.46,38.57-4.9,2.33-2.67-78.58-1.67-84-1.41-21.14,1-36.7-.66-43.94-.05-3.08-2.68-8.43-4.54-17.39-4.54s-14.32,1.86-17.4,4.54c-7.23-.61-22.8,1.09-43.94.05-5.42-.26-86.33-1.26-84,1.41,1.27,1.44,19.61,3.38,38.57,4.9a43.22,43.22,0,0,0-.57,6c-.14,3.26-5.31,27.5-6.44,32.78-14.57-.3-27-.58-27-.58s-6,0-5.75.64,10.75,3.11,12.25,3.36,57.75,4.5,61.25,4.75c2.06.15,21.45,1.77,37.91,3.53a.61.61,0,0,1,0,.11c.63,1.22,3.07,1.36,6.52.62,4.49.53,8.5,1.05,11.49,1.53l.47.43c-1.17,3.2-2.42,6.28-2.42,6.28L1693.94,235c-2.51.32-4.5,2.95-4.5,6.1a6.8,6.8,0,0,0,1.65,4.52c0,.1,0,.19,0,.29,0,3.81,1.65,6.89,3.69,6.89s3.69-3.08,3.69-6.89c0-.37,0-.73,0-1.08a7,7,0,0,0,1-3.73,6.4,6.4,0,0,0-2.71-5.43c.42-.76,1.54-2.79,2.51-4.2,2.55-3.74,7.29-8.36,9.81-10.71a26.88,26.88,0,0,0,18.87,0c2.53,2.35,7.26,7,9.82,10.71,1,1.41,2.09,3.44,2.5,4.2a6.42,6.42,0,0,0-2.71,5.43,7,7,0,0,0,1,3.73c0,.35,0,.71,0,1.08,0,3.81,1.65,6.89,3.69,6.89s3.69-3.08,3.69-6.89v-.29a6.84,6.84,0,0,0,1.64-4.52c0-3.15-2-5.78-4.49-6.1l-5.57-12.53s-1.26-3.08-2.42-6.28l.46-.43c14.58-2.35,53-5.58,56-5.79,3.5-.25,59.75-4.5,61.25-4.75s12-2.75,12.25-3.36S1859.26,201.24,1859.26,201.24Zm-245.92.75c0-5.16-.06-32.33-.59-38.85,15.66,1.25,31.56,2.2,38.42,2.35,14.35.31,43.56,5.29,47.27,5.93a26.06,26.06,0,0,0,1.4,3.43c-1.94,2-3.33,4.26-4.58,5.64-3.22,4.74-4,13.17-2.23,20.81-8.37.21-37.68,1-43,1.19C1647,202.61,1630.06,202.32,1613.34,202Zm173.67.5c-5.35-.21-34.66-1-43-1.19a34.26,34.26,0,0,0,.46-13.59c6.26-4.06,10.1-8.1,9.11-10s-6.26-1.21-13,1.35a43.73,43.73,0,0,0-3.41-4.18,26.32,26.32,0,0,0,1.39-3.43c3.72-.64,32.93-5.62,47.27-5.93,6.87-.15,22.76-1.1,38.43-2.35-.54,6.52-.59,33.69-.6,38.85C1807,202.32,1790,202.61,1787,202.49Z" transform="translate(0.1)"/><path class="cls-15" d="M1859.26,201.24s-12.41.28-27,.58c-1.14-5.28-6.3-29.52-6.45-32.78a43.22,43.22,0,0,0-.57-6c19-1.52,37.3-3.46,38.57-4.9,2.33-2.67-78.58-1.67-84-1.41-21.14,1-36.7-.66-43.94-.05-3.08-2.68-8.43-4.54-17.39-4.54s-14.32,1.86-17.4,4.54c-7.23-.61-22.8,1.09-43.94.05-5.42-.26-86.33-1.26-84,1.41,1.27,1.44,19.61,3.38,38.57,4.9a43.22,43.22,0,0,0-.57,6c-.14,3.26-5.31,27.5-6.44,32.78-14.57-.3-27-.58-27-.58s-6,0-5.75.64,10.75,3.11,12.25,3.36,57.75,4.5,61.25,4.75c2.06.15,21.45,1.77,37.91,3.53a.61.61,0,0,1,0,.11c.63,1.22,3.07,1.36,6.52.62,4.49.53,8.5,1.05,11.49,1.53l.47.43c-1.17,3.2-2.42,6.28-2.42,6.28L1693.94,235c-2.51.32-4.5,2.95-4.5,6.1a6.8,6.8,0,0,0,1.65,4.52c0,.1,0,.19,0,.29,0,3.81,1.65,6.89,3.69,6.89s3.69-3.08,3.69-6.89c0-.37,0-.73,0-1.08a7,7,0,0,0,1-3.73,6.4,6.4,0,0,0-2.71-5.43c.42-.76,1.54-2.79,2.51-4.2,2.55-3.74,7.29-8.36,9.81-10.71a26.88,26.88,0,0,0,18.87,0c2.53,2.35,7.26,7,9.82,10.71,1,1.41,2.09,3.44,2.5,4.2a6.42,6.42,0,0,0-2.71,5.43,7,7,0,0,0,1,3.73c0,.35,0,.71,0,1.08,0,3.81,1.65,6.89,3.69,6.89s3.69-3.08,3.69-6.89v-.29a6.84,6.84,0,0,0,1.64-4.52c0-3.15-2-5.78-4.49-6.1l-5.57-12.53s-1.26-3.08-2.42-6.28l.46-.43c14.58-2.35,53-5.58,56-5.79,3.5-.25,59.75-4.5,61.25-4.75s12-2.75,12.25-3.36S1859.26,201.24,1859.26,201.24Zm-245.92.75c0-5.16-.06-32.33-.59-38.85,15.66,1.25,31.56,2.2,38.42,2.35,14.35.31,43.56,5.29,47.27,5.93a26.06,26.06,0,0,0,1.4,3.43c-1.94,2-3.33,4.26-4.58,5.64-3.22,4.74-4,13.17-2.23,20.81-8.37.21-37.68,1-43,1.19C1647,202.61,1630.06,202.32,1613.34,202Zm173.67.5c-5.35-.21-34.66-1-43-1.19a34.26,34.26,0,0,0,.46-13.59c6.26-4.06,10.1-8.1,9.11-10s-6.26-1.21-13,1.35a43.73,43.73,0,0,0-3.41-4.18,26.32,26.32,0,0,0,1.39-3.43c3.72-.64,32.93-5.62,47.27-5.93,6.87-.15,22.76-1.1,38.43-2.35-.54,6.52-.59,33.69-.6,38.85C1807,202.32,1790,202.61,1787,202.49Z" transform="translate(0.1)"/><path class="cls-16" d="M1883.39,714s111.78-13.74,114-31.1S1917,663,1912.64,664.68,1825.43,704,1883.39,714Z" transform="translate(0.1)"/><g class="cls-17"><path class="cls-18" d="M1886.87,494.74s39.71,31.78,61.18,0-7.51-123.15,32.21-115.21,10,139.48-17.18,151c-41.43,17.49-76.21-14.57-76.21-14.57Z" transform="translate(0.1)"/><path class="cls-19" d="M1883.58,501.88s41.28,26.23,64.21,8c28.94-23,30.29-125.17,14.79-130.84" transform="translate(0.1)"/><path class="cls-19" d="M1883.58,512.61s49.26,28.52,76.63,8.69c34.53-25,36.14-136.1,17.65-142.26" transform="translate(0.1)"/></g><g class="cls-20"><path class="cls-18" d="M1878.81,281.82s22.7,21.21,35,0-4.29-82.17,18.4-76.87,5.73,93.07-9.81,100.73c-23.68,11.66-43.56-9.72-43.56-9.72Z" transform="translate(0.1)"/><path class="cls-19" d="M1932.18,205s11,65.06-13.44,93.19c-17.17,19.75-43.14-8.95-43.14-8.95" transform="translate(0.1)"/><path class="cls-19" d="M1923.53,205s9.33,59.89-11.39,85.79c-14.54,18.18-36.54-8.24-36.54-8.24" transform="translate(0.1)"/></g><g class="cls-21"><path class="cls-18" d="M1876.75,426.69s-32.44,23.8-50,0,6.14-92.23-26.29-86.28-8.18,104.46,14,113.06c33.83,13.09,62.24-10.91,62.24-10.91Z" transform="translate(0.1)"/><path class="cls-19" d="M1792.6,340s-.49,88.46,20.81,104c24.67,18,57.34,0,57.34,0" transform="translate(0.1)"/><path class="cls-19" d="M1809,335.54s-.37,86.44,15.55,101c18.43,16.86,42.84,0,42.84,0" transform="translate(0.1)"/></g><g class="cls-22"><path class="cls-18" d="M1913.89,457.63c0,138.62-2,258-32,255-66.76-6.62-49-112.38-49-251s12.36-251,39.43-251S1913.89,319,1913.89,457.63Z" transform="translate(0.1)"/><path class="cls-19" d="M1878.81,202.13s23,136.85,24.08,292.5c.83,123.33-21.5,223.5-21.5,223.5" transform="translate(0.1)"/><path class="cls-19" d="M1866,202.13s-35.22,164.5-21.08,376.5c8.21,123.06,19.78,134,19.78,134" transform="translate(0.1)"/><path class="cls-19" d="M1872.32,205.13s8.89,161.5,5.87,373.5c-1.76,123.06-4.24,134-4.24,134" transform="translate(0.1)"/></g><path class="cls-5" d="M1235,584" transform="translate(0.1)"/></g></g></g></svg>