<svg xmlns="http://www.w3.org/2000/svg" xmlns:xlink="http://www.w3.org/1999/xlink" viewBox="0 0 2000 1000"><defs><style>.cls-1,.cls-79{fill:none;}.cls-2{isolation:isolate;}.cls-3{fill:url(#linear-gradient);}.cls-4{fill:url(#linear-gradient-2);}.cls-5{fill:url(#linear-gradient-3);}.cls-6{fill:url(#linear-gradient-4);}.cls-7{fill:url(#linear-gradient-5);}.cls-8{fill:url(#linear-gradient-6);}.cls-9{fill:url(#linear-gradient-7);}.cls-10{fill:url(#linear-gradient-8);}.cls-11{fill:url(#linear-gradient-9);}.cls-12{fill:url(#linear-gradient-10);}.cls-13{fill:url(#linear-gradient-11);}.cls-14{fill:url(#linear-gradient-12);}.cls-15{fill:url(#linear-gradient-13);}.cls-16{fill:url(#linear-gradient-14);}.cls-17{fill:url(#linear-gradient-15);}.cls-18{fill:url(#linear-gradient-16);}.cls-19{fill:url(#linear-gradient-17);}.cls-20{fill:url(#linear-gradient-18);}.cls-21{fill:url(#linear-gradient-19);}.cls-22{fill:url(#linear-gradient-20);}.cls-23{fill:url(#linear-gradient-21);}.cls-24{fill:url(#linear-gradient-22);}.cls-25{fill:url(#linear-gradient-23);}.cls-26{fill:url(#linear-gradient-24);}.cls-27{fill:url(#linear-gradient-25);}.cls-28{fill:url(#linear-gradient-26);}.cls-29{fill:url(#linear-gradient-27);}.cls-30{fill:url(#linear-gradient-28);}.cls-31{fill:url(#linear-gradient-29);}.cls-32{fill:url(#linear-gradient-30);}.cls-33{fill:url(#linear-gradient-31);}.cls-34{fill:url(#linear-gradient-32);}.cls-35{fill:url(#linear-gradient-33);}.cls-36{fill:url(#linear-gradient-34);}.cls-37{fill:url(#linear-gradient-35);}.cls-38{fill:url(#linear-gradient-36);}.cls-39{fill:url(#linear-gradient-37);}.cls-40{fill:#ef5023;}.cls-41{fill:url(#linear-gradient-38);}.cls-42{fill:url(#linear-gradient-39);}.cls-43{fill:url(#linear-gradient-40);}.cls-44{fill:url(#linear-gradient-41);}.cls-45{fill:url(#linear-gradient-42);}.cls-46{fill:url(#linear-gradient-43);}.cls-47{fill:url(#linear-gradient-44);}.cls-48{fill:url(#linear-gradient-45);}.cls-49{fill:url(#linear-gradient-46);}.cls-50{fill:url(#linear-gradient-47);}.cls-51{fill:url(#linear-gradient-48);}.cls-52{fill:url(#linear-gradient-49);}.cls-53{fill:url(#linear-gradient-50);}.cls-54{fill:url(#linear-gradient-51);}.cls-55{fill:url(#linear-gradient-52);}.cls-56{fill:url(#linear-gradient-53);}.cls-57{fill:url(#linear-gradient-54);}.cls-58{fill:url(#linear-gradient-55);}.cls-59{fill:url(#linear-gradient-56);}.cls-60{fill:url(#linear-gradient-57);}.cls-61{fill:url(#linear-gradient-58);}.cls-62{fill:url(#linear-gradient-59);}.cls-63{fill:url(#linear-gradient-60);}.cls-64{fill:url(#linear-gradient-61);}.cls-65{fill:#d2d2ff;}.cls-66{fill:url(#linear-gradient-62);}.cls-67{fill:url(#linear-gradient-63);}.cls-68{fill:url(#linear-gradient-64);}.cls-69{fill:url(#linear-gradient-65);}.cls-70{fill:url(#linear-gradient-66);}.cls-71{fill:url(#linear-gradient-67);}.cls-72{fill:url(#linear-gradient-68);}.cls-73{fill:url(#linear-gradient-69);}.cls-74{fill:url(#linear-gradient-70);}.cls-75{fill:#252526;}.cls-76{fill:#e5cbb1;}.cls-76,.cls-83{mix-blend-mode:multiply;}.cls-77{clip-path:url(#clip-path);}.cls-78{fill:#0ba14a;}.cls-79{stroke:#fff;stroke-miterlimit:10;}.cls-80{clip-path:url(#clip-path-2);}.cls-81{clip-path:url(#clip-path-3);}.cls-82{clip-path:url(#clip-path-4);}.cls-83{opacity:0.51;}.cls-84{fill:#0d23a0;opacity:0.65;}</style><linearGradient id="linear-gradient" x1="0.07" y1="238.48" x2="2000" y2="238.48" gradientUnits="userSpaceOnUse"><stop offset="0.21" stop-color="#fff" stop-opacity="0.9"/><stop offset="1" stop-color="#040454"/></linearGradient><linearGradient id="linear-gradient-2" x1="0.07" y1="116.27" y2="116.27" xlink:href="#linear-gradient"/><linearGradient id="linear-gradient-3" x1="0.07" y1="542" y2="542" xlink:href="#linear-gradient"/><linearGradient id="linear-gradient-4" x1="0.07" y1="170.35" y2="170.35" xlink:href="#linear-gradient"/><linearGradient id="linear-gradient-5" x1="1378.37" y1="363.44" x2="1654.2" y2="87.61" gradientUnits="userSpaceOnUse"><stop offset="0" stop-color="#fff" stop-opacity="0"/><stop offset="1" stop-color="#383875"/></linearGradient><linearGradient id="linear-gradient-6" x1="0.07" y1="130.47" y2="130.47" xlink:href="#linear-gradient"/><linearGradient id="linear-gradient-7" x1="1306.44" y1="291.51" x2="1582.27" y2="15.68" xlink:href="#linear-gradient-5"/><linearGradient id="linear-gradient-8" x1="0.07" y1="124.26" y2="124.26" xlink:href="#linear-gradient"/><linearGradient id="linear-gradient-9" x1="1589.45" y1="266.36" x2="1798.26" y2="57.56" xlink:href="#linear-gradient-5"/><linearGradient id="linear-gradient-10" x1="0.07" y1="225.28" y2="225.28" xlink:href="#linear-gradient"/><linearGradient id="linear-gradient-11" x1="1690.16" y1="367.06" x2="1898.96" y2="158.26" xlink:href="#linear-gradient-5"/><linearGradient id="linear-gradient-12" x1="0.07" y1="173.77" y2="173.77" xlink:href="#linear-gradient"/><linearGradient id="linear-gradient-13" x1="1619.87" y1="296.77" x2="1828.67" y2="87.97" xlink:href="#linear-gradient-5"/><linearGradient id="linear-gradient-14" x1="0.07" y1="173.96" y2="173.96" xlink:href="#linear-gradient"/><linearGradient id="linear-gradient-15" x1="1405.12" y1="390.19" x2="1680.95" y2="114.36" xlink:href="#linear-gradient-5"/><linearGradient id="linear-gradient-16" x1="1559.2" y1="236.11" x2="1768" y2="27.3" xlink:href="#linear-gradient-5"/><linearGradient id="linear-gradient-17" x1="0.07" y1="175.08" y2="175.08" xlink:href="#linear-gradient"/><linearGradient id="linear-gradient-18" x1="1455.26" y1="440.33" x2="1731.09" y2="164.5" xlink:href="#linear-gradient-5"/><linearGradient id="linear-gradient-19" x1="1609.34" y1="286.24" x2="1818.14" y2="77.44" xlink:href="#linear-gradient-5"/><linearGradient id="linear-gradient-20" x1="0.07" y1="139.16" y2="139.16" xlink:href="#linear-gradient"/><linearGradient id="linear-gradient-21" x1="1409.59" y1="394.66" x2="1685.42" y2="118.83" xlink:href="#linear-gradient-5"/><linearGradient id="linear-gradient-22" x1="1563.67" y1="240.58" x2="1772.47" y2="31.77" xlink:href="#linear-gradient-5"/><linearGradient id="linear-gradient-23" x1="0.07" y1="205.94" y2="205.94" xlink:href="#linear-gradient"/><linearGradient id="linear-gradient-24" x1="1415.33" y1="400.4" x2="1691.16" y2="124.57" xlink:href="#linear-gradient-5"/><linearGradient id="linear-gradient-25" x1="1569.42" y1="246.32" x2="1778.22" y2="37.52" xlink:href="#linear-gradient-5"/><linearGradient id="linear-gradient-26" x1="0.07" y1="217.65" y2="217.65" xlink:href="#linear-gradient"/><linearGradient id="linear-gradient-27" x1="1456.96" y1="442.03" x2="1732.79" y2="166.2" xlink:href="#linear-gradient-5"/><linearGradient id="linear-gradient-28" x1="1611.04" y1="287.95" x2="1819.84" y2="79.14" xlink:href="#linear-gradient-5"/><linearGradient id="linear-gradient-29" x1="0.07" y1="216.39" y2="216.39" xlink:href="#linear-gradient"/><linearGradient id="linear-gradient-30" x1="1473.29" y1="458.36" x2="1749.12" y2="182.53" xlink:href="#linear-gradient-5"/><linearGradient id="linear-gradient-31" x1="1627.37" y1="304.28" x2="1836.17" y2="95.47" xlink:href="#linear-gradient-5"/><linearGradient id="linear-gradient-32" x1="0.07" y1="541.45" y2="541.45" xlink:href="#linear-gradient"/><linearGradient id="linear-gradient-33" x1="-0.1" y1="541.45" x2="2000" y2="541.45" gradientUnits="userSpaceOnUse"><stop offset="0" stop-color="#fff" stop-opacity="0.5"/><stop offset="1" stop-color="#5982ea"/></linearGradient><linearGradient id="linear-gradient-34" x1="-0.1" y1="541.45" x2="2000" y2="541.45" gradientUnits="userSpaceOnUse"><stop offset="0.31" stop-color="#fff" stop-opacity="0.5"/><stop offset="1" stop-color="#0a5bbc" stop-opacity="0.75"/></linearGradient><linearGradient id="linear-gradient-35" x1="0.07" y1="324.39" y2="324.39" xlink:href="#linear-gradient"/><linearGradient id="linear-gradient-36" x1="-0.1" y1="324.39" x2="2000" y2="324.39" xlink:href="#linear-gradient-33"/><linearGradient id="linear-gradient-37" x1="-0.1" y1="324.39" x2="2000" y2="324.39" xlink:href="#linear-gradient-34"/><linearGradient id="linear-gradient-38" x1="0.07" y1="438.52" y2="438.52" xlink:href="#linear-gradient"/><linearGradient id="linear-gradient-39" x1="-0.1" y1="438.52" x2="2000" y2="438.52" xlink:href="#linear-gradient-33"/><linearGradient id="linear-gradient-40" x1="-0.1" y1="438.52" x2="2000" y2="438.52" xlink:href="#linear-gradient-34"/><linearGradient id="linear-gradient-41" x1="0.07" y1="224.88" y2="224.88" xlink:href="#linear-gradient"/><linearGradient id="linear-gradient-42" x1="1335.44" y1="320.5" x2="1611.27" y2="44.67" xlink:href="#linear-gradient-5"/><linearGradient id="linear-gradient-43" x1="-0.1" y1="224.88" x2="2000" y2="224.88" xlink:href="#linear-gradient-33"/><linearGradient id="linear-gradient-44" x1="-0.1" y1="224.88" x2="2000" y2="224.88" xlink:href="#linear-gradient-34"/><linearGradient id="linear-gradient-45" x1="0.07" y1="246.94" y2="246.94" xlink:href="#linear-gradient"/><linearGradient id="linear-gradient-46" x1="1668.82" y1="345.72" x2="1877.62" y2="136.92" xlink:href="#linear-gradient-5"/><linearGradient id="linear-gradient-47" x1="-0.1" y1="246.94" x2="2000" y2="246.94" xlink:href="#linear-gradient-33"/><linearGradient id="linear-gradient-48" x1="-0.1" y1="246.94" x2="2000" y2="246.94" xlink:href="#linear-gradient-34"/><linearGradient id="linear-gradient-49" x1="0.07" y1="234.02" y2="234.02" xlink:href="#linear-gradient"/><linearGradient id="linear-gradient-50" x1="1441.16" y1="426.23" x2="1716.99" y2="150.4" xlink:href="#linear-gradient-5"/><linearGradient id="linear-gradient-51" x1="1595.25" y1="272.15" x2="1804.05" y2="63.34" xlink:href="#linear-gradient-5"/><linearGradient id="linear-gradient-52" x1="-0.1" y1="234.02" x2="2000" y2="234.02" xlink:href="#linear-gradient-33"/><linearGradient id="linear-gradient-53" x1="-0.1" y1="234.02" x2="2000" y2="234.02" xlink:href="#linear-gradient-34"/><linearGradient id="linear-gradient-54" x1="0.07" y1="425.41" y2="425.41" xlink:href="#linear-gradient"/><linearGradient id="linear-gradient-55" x1="-0.1" y1="425.41" x2="2000" y2="425.41" xlink:href="#linear-gradient-33"/><linearGradient id="linear-gradient-56" x1="-0.1" y1="425.41" x2="2000" y2="425.41" xlink:href="#linear-gradient-34"/><linearGradient id="linear-gradient-57" x1="718.29" y1="425.41" x2="2000" y2="425.41" gradientUnits="userSpaceOnUse"><stop offset="0.02" stop-color="#fff" stop-opacity="0.5"/><stop offset="1" stop-color="#2929d3" stop-opacity="0.75"/></linearGradient><linearGradient id="linear-gradient-58" x1="0.07" y1="488.37" y2="488.37" xlink:href="#linear-gradient"/><linearGradient id="linear-gradient-59" x1="-0.1" y1="488.37" x2="2000" y2="488.37" xlink:href="#linear-gradient-33"/><linearGradient id="linear-gradient-60" x1="-0.1" y1="488.37" x2="2000" y2="488.37" xlink:href="#linear-gradient-34"/><linearGradient id="linear-gradient-61" x1="718.29" y1="488.37" y2="488.37" xlink:href="#linear-gradient-57"/><linearGradient id="linear-gradient-62" x1="0.02" y1="766.91" x2="2000" y2="766.91" gradientUnits="userSpaceOnUse"><stop offset="0" stop-color="#fff"/><stop offset="1" stop-color="#251884"/></linearGradient><linearGradient id="linear-gradient-63" x1="0.07" y1="147.92" y2="147.92" xlink:href="#linear-gradient"/><linearGradient id="linear-gradient-64" x1="1756.99" y1="147.92" x2="2093.1" y2="147.92" xlink:href="#linear-gradient-5"/><linearGradient id="linear-gradient-65" x1="0.07" y1="176.8" y2="176.8" xlink:href="#linear-gradient"/><linearGradient id="linear-gradient-66" x1="1681.09" y1="358" x2="1889.89" y2="149.19" xlink:href="#linear-gradient-5"/><linearGradient id="linear-gradient-67" x1="1756.99" y1="176.8" x2="2093.1" y2="176.8" xlink:href="#linear-gradient-5"/><linearGradient id="linear-gradient-68" x1="0.07" y1="173.06" y2="173.06" xlink:href="#linear-gradient"/><linearGradient id="linear-gradient-69" x1="1634.49" y1="311.4" x2="1843.3" y2="102.6" xlink:href="#linear-gradient-5"/><linearGradient id="linear-gradient-70" x1="1756.99" y1="173.06" x2="2093.1" y2="173.06" xlink:href="#linear-gradient-5"/><clipPath id="clip-path"><path class="cls-1" d="M1876.87,496.74s39.71,31.78,61.18,0-7.51-123.15,32.21-115.21,10,139.48-17.18,151c-41.43,17.49-76.21-14.57-76.21-14.57Z"/></clipPath><clipPath id="clip-path-2"><path class="cls-1" d="M1868.81,283.82s22.7,21.21,35,0-4.29-82.17,18.4-76.87,5.73,93.07-9.81,100.73c-23.68,11.66-43.56-9.72-43.56-9.72Z"/></clipPath><clipPath id="clip-path-3"><path class="cls-1" d="M1866.75,428.69s-32.44,23.8-50,0,6.14-92.23-26.29-86.28-8.18,104.46,14,113.06c33.83,13.09,62.24-10.91,62.24-10.91Z"/></clipPath><clipPath id="clip-path-4"><path class="cls-1" d="M1903.89,459.63c0,138.62-2,258-32,255-66.76-6.62-49-112.38-49-251s12.36-251,39.43-251S1903.89,321,1903.89,459.63Z"/></clipPath></defs><title>homePageIllustrationBlue</title><g class="cls-2"><g id="red_version" data-name="red version"><path class="cls-1" d="M2000,542.13V0H0V1000H1894c-208.91-9.45-663.92-64.41-767.46-360.5-12.37-35.38-15.13-68-12.87-99.41,2.37-32.91,10.24-64.49,18.34-96.55q1.27-5,2.54-10c14.54-57.77,28-117.65,10-190-1-3.86-2-7.67-3-11.46C1111.34,124.61,1043,48.09,990.5.5h1009V1000h.5V542.13Z"/><path class="cls-3" d="M1920.6,251.25c16.7.72,31.63,1,42.25.39l36.65-2V225h-63.19A46.2,46.2,0,0,1,1920.6,251.25Z"/><path class="cls-4" d="M1242.51,212.13a59,59,0,0,1,29.66-61.49,63,63,0,0,1,84-46.94,95.34,95.34,0,0,1,166-11.91,81.89,81.89,0,0,1,93,19.24,75.67,75.67,0,0,1,37.37,19.9,72.15,72.15,0,0,1,118.72,2.73,61.85,61.85,0,0,1,25-5.24c1.53,0,3,.07,4.54.18a40.52,40.52,0,0,1,53.91,5.85,40.34,40.34,0,0,1,18.86-4.65l1.35,0A73,73,0,0,1,1999.5,93.55V.5H990.5c52.51,47.59,120.84,124.11,151,231.54,28-4.81,51.65-9,56.77-11.08C1205.18,218.12,1225.77,214.64,1242.51,212.13Z"/><path class="cls-5" d="M1999.5,542.1v-.2h-4Z"/><path class="cls-6" d="M1582,178.21a47.61,47.61,0,0,1,11.67-23.11c-7.05-.42-15.4-1-23.7-1.66.44,5.28.55,24.12.58,33.82A45.14,45.14,0,0,1,1582,178.21Z"/><path class="cls-7" d="M1582,178.21a47.61,47.61,0,0,1,11.67-23.11c-7.05-.42-15.4-1-23.7-1.66.44,5.28.55,24.12.58,33.82A45.14,45.14,0,0,1,1582,178.21Z"/><path class="cls-8" d="M1408.76,192.61c12.39-6.08,68.11-5.05,89.78,0,18.51,4.34,41.55,13.87,61.38,15.28a44.19,44.19,0,0,1,3.74-10.6c-11.67-.9-21.56-1.68-22.18-1.78-1.5-.25-12-2.75-12.25-3.36s5.75-.64,5.75-.64,12.41.28,27,.58c1.13-5.28,6.3-29.51,6.45-32.78a43.41,43.41,0,0,1,.56-6c-19-1.52-37.3-3.46-38.56-4.9-1.88-2.14,49.91-1.92,73.2-1.62a47.74,47.74,0,0,1,42-4.16,71.35,71.35,0,0,1,7-11.75A75.67,75.67,0,0,0,1615.2,111a81.89,81.89,0,0,0-93-19.24,95.34,95.34,0,0,0-166,11.91,63,63,0,0,0-84,46.94,59,59,0,0,0-29.66,61.49c13.1-2,23.83-3.33,23.83-3.33S1396.37,198.7,1408.76,192.61Z"/><path class="cls-9" d="M1408.76,192.61c12.39-6.08,68.11-5.05,89.78,0,18.51,4.34,41.55,13.87,61.38,15.28a44.19,44.19,0,0,1,3.74-10.6c-11.67-.9-21.56-1.68-22.18-1.78-1.5-.25-12-2.75-12.25-3.36s5.75-.64,5.75-.64,12.41.28,27,.58c1.13-5.28,6.3-29.51,6.45-32.78a43.41,43.41,0,0,1,.56-6c-19-1.52-37.3-3.46-38.56-4.9-1.88-2.14,49.91-1.92,73.2-1.62a47.74,47.74,0,0,1,42-4.16,71.35,71.35,0,0,1,7-11.75A75.67,75.67,0,0,0,1615.2,111a81.89,81.89,0,0,0-93-19.24,95.34,95.34,0,0,0-166,11.91,63,63,0,0,0-84,46.94,59,59,0,0,0-29.66,61.49c13.1-2,23.83-3.33,23.83-3.33S1396.37,198.7,1408.76,192.61Z"/><path class="cls-10" d="M1661.88,141.87a61.2,61.2,0,0,1,49,5.35c7.26.2,16.09.33,26.22-.17,2.2-.1,16.75-.33,33.15-.39a45.92,45.92,0,0,1,24.87-13.08,41,41,0,0,1,5.71-5c-1.5-.11-3-.18-4.54-.18a61.85,61.85,0,0,0-25,5.24,72.15,72.15,0,0,0-118.72-2.73A76.67,76.67,0,0,1,1661.88,141.87Z"/><path class="cls-11" d="M1661.88,141.87a61.2,61.2,0,0,1,49,5.35c7.26.2,16.09.33,26.22-.17,2.2-.1,16.75-.33,33.15-.39a45.92,45.92,0,0,1,24.87-13.08,41,41,0,0,1,5.71-5c-1.5-.11-3-.18-4.54-.18a61.85,61.85,0,0,0-25,5.24,72.15,72.15,0,0,0-118.72-2.73A76.67,76.67,0,0,1,1661.88,141.87Z"/><path class="cls-12" d="M1936.31,225H1803.05a46.06,46.06,0,0,1-41.32-25.69l-13,1c-.7.05-3.41.27-7.3.61a60.89,60.89,0,0,1-8.84,31c27.29,5.5,54.12,10.19,69.29,11.25,24.31,1.69,77,6.33,118.72,8.11A46.2,46.2,0,0,0,1936.31,225Z"/><path class="cls-13" d="M1936.31,225H1803.05a46.06,46.06,0,0,1-41.32-25.69l-13,1c-.7.05-3.41.27-7.3.61a60.89,60.89,0,0,1-8.84,31c27.29,5.5,54.12,10.19,69.29,11.25,24.31,1.69,77,6.33,118.72,8.11A46.2,46.2,0,0,0,1936.31,225Z"/><path class="cls-14" d="M1763.88,154.72c-8.92.58-16.58,1-20.82,1.07-5.07.11-12,.81-19,1.69a60.89,60.89,0,0,1,16.93,35.2l3.26.11c1.63.06,7.32,0,14.84-.1a46.28,46.28,0,0,1-2.08-13.75A45.72,45.72,0,0,1,1763.88,154.72Z"/><path class="cls-15" d="M1763.88,154.72c-8.92.58-16.58,1-20.82,1.07-5.07.11-12,.81-19,1.69a60.89,60.89,0,0,1,16.93,35.2l3.26.11c1.63.06,7.32,0,14.84-.1a46.28,46.28,0,0,1-2.08-13.75A45.72,45.72,0,0,1,1763.88,154.72Z"/><path class="cls-16" d="M1608.4,155.79c-3.23-.07-8.47-.32-14.73-.69A47.61,47.61,0,0,0,1582,178.21a45.14,45.14,0,0,0-11.45,9c0,2.28,0,4.05,0,5,16.72.33,33.65.62,36.67.5,5.35-.21,34.66-1,43-1.19-1.8-7.64-1-16.06,2.23-20.81,1.25-1.38,2.64-3.64,4.58-5.64a26.32,26.32,0,0,1-1.39-3.43C1652,161.08,1622.74,156.1,1608.4,155.79Z"/><path class="cls-17" d="M1608.4,155.79c-3.23-.07-8.47-.32-14.73-.69A47.61,47.61,0,0,0,1582,178.21a45.14,45.14,0,0,0-11.45,9c0,2.28,0,4.05,0,5,16.72.33,33.65.62,36.67.5,5.35-.21,34.66-1,43-1.19-1.8-7.64-1-16.06,2.23-20.81,1.25-1.38,2.64-3.64,4.58-5.64a26.32,26.32,0,0,1-1.39-3.43C1652,161.08,1622.74,156.1,1608.4,155.79Z"/><path class="cls-18" d="M1608.4,155.79c-3.23-.07-8.47-.32-14.73-.69A47.61,47.61,0,0,0,1582,178.21a45.14,45.14,0,0,0-11.45,9c0,2.28,0,4.05,0,5,16.72.33,33.65.62,36.67.5,5.35-.21,34.66-1,43-1.19-1.8-7.64-1-16.06,2.23-20.81,1.25-1.38,2.64-3.64,4.58-5.64a26.32,26.32,0,0,1-1.39-3.43C1652,161.08,1622.74,156.1,1608.4,155.79Z"/><path class="cls-19" d="M1695.79,161.72a26.32,26.32,0,0,1-1.39,3.43,43.73,43.73,0,0,1,3.41,4.18c6.72-2.56,12-3.23,13-1.35s-2.85,6-9.11,10a34.26,34.26,0,0,1-.46,13.59c7.26.18,30.32.78,39.76,1.08a60.89,60.89,0,0,0-16.93-35.2C1711.24,159.08,1698.2,161.31,1695.79,161.72Z"/><path class="cls-20" d="M1695.79,161.72a26.32,26.32,0,0,1-1.39,3.43,43.73,43.73,0,0,1,3.41,4.18c6.72-2.56,12-3.23,13-1.35s-2.85,6-9.11,10a34.26,34.26,0,0,1-.46,13.59c7.26.18,30.32.78,39.76,1.08a60.89,60.89,0,0,0-16.93-35.2C1711.24,159.08,1698.2,161.31,1695.79,161.72Z"/><path class="cls-21" d="M1695.79,161.72a26.32,26.32,0,0,1-1.39,3.43,43.73,43.73,0,0,1,3.41,4.18c6.72-2.56,12-3.23,13-1.35s-2.85,6-9.11,10a34.26,34.26,0,0,1-.46,13.59c7.26.18,30.32.78,39.76,1.08a60.89,60.89,0,0,0-16.93-35.2C1711.24,159.08,1698.2,161.31,1695.79,161.72Z"/><path class="cls-22" d="M1628.82,139.63a47.55,47.55,0,0,0-25.22,7.21c5.72.08,9.73.16,10.8.21,21.13,1,36.7-.66,43.94-.05,3.07-2.67,8.43-4.54,17.39-4.54s14.32,1.87,17.39,4.54c3.77-.31,9.82,0,17.72.22a61.2,61.2,0,0,0-49-5.35,76.67,76.67,0,0,0-9.31-10.94,71.35,71.35,0,0,0-7,11.75A47.56,47.56,0,0,0,1628.82,139.63Z"/><path class="cls-23" d="M1628.82,139.63a47.55,47.55,0,0,0-25.22,7.21c5.72.08,9.73.16,10.8.21,21.13,1,36.7-.66,43.94-.05,3.07-2.67,8.43-4.54,17.39-4.54s14.32,1.87,17.39,4.54c3.77-.31,9.82,0,17.72.22a61.2,61.2,0,0,0-49-5.35,76.67,76.67,0,0,0-9.31-10.94,71.35,71.35,0,0,0-7,11.75A47.56,47.56,0,0,0,1628.82,139.63Z"/><path class="cls-24" d="M1628.82,139.63a47.55,47.55,0,0,0-25.22,7.21c5.72.08,9.73.16,10.8.21,21.13,1,36.7-.66,43.94-.05,3.07-2.67,8.43-4.54,17.39-4.54s14.32,1.87,17.39,4.54c3.77-.31,9.82,0,17.72.22a61.2,61.2,0,0,0-49-5.35,76.67,76.67,0,0,0-9.31-10.94,71.35,71.35,0,0,0-7,11.75A47.56,47.56,0,0,0,1628.82,139.63Z"/><path class="cls-25" d="M1659.15,206.51l-.46-.43c-3-.48-7-1-11.5-1.53-3.45.74-5.89.6-6.51-.62a.35.35,0,0,1,0-.11c-16.47-1.76-35.86-3.38-37.92-3.53s-22.39-1.68-39.07-3a44.19,44.19,0,0,0-3.74,10.6,59.39,59.39,0,0,0,9.81,0c21.67-2,55.72-2,80.48,5.1,1.63.47,3.56,1,5.74,1.57l.78-1.76S1658,209.71,1659.15,206.51Z"/><path class="cls-26" d="M1659.15,206.51l-.46-.43c-3-.48-7-1-11.5-1.53-3.45.74-5.89.6-6.51-.62a.35.35,0,0,1,0-.11c-16.47-1.76-35.86-3.38-37.92-3.53s-22.39-1.68-39.07-3a44.19,44.19,0,0,0-3.74,10.6,59.39,59.39,0,0,0,9.81,0c21.67-2,55.72-2,80.48,5.1,1.63.47,3.56,1,5.74,1.57l.78-1.76S1658,209.71,1659.15,206.51Z"/><path class="cls-27" d="M1659.15,206.51l-.46-.43c-3-.48-7-1-11.5-1.53-3.45.74-5.89.6-6.51-.62a.35.35,0,0,1,0-.11c-16.47-1.76-35.86-3.38-37.92-3.53s-22.39-1.68-39.07-3a44.19,44.19,0,0,0-3.74,10.6,59.39,59.39,0,0,0,9.81,0c21.67-2,55.72-2,80.48,5.1,1.63.47,3.56,1,5.74,1.57l.78-1.76S1658,209.71,1659.15,206.51Z"/><path class="cls-28" d="M1685.17,211.08a26.91,26.91,0,0,1-18.88,0c-1.26,1.19-3.09,2.94-4.92,4.87,9.25,2.34,21.52,5.24,35.12,8.27-.47-.8-1-1.7-1.51-2.43C1692.43,218.05,1687.69,213.43,1685.17,211.08Z"/><path class="cls-29" d="M1685.17,211.08a26.91,26.91,0,0,1-18.88,0c-1.26,1.19-3.09,2.94-4.92,4.87,9.25,2.34,21.52,5.24,35.12,8.27-.47-.8-1-1.7-1.51-2.43C1692.43,218.05,1687.69,213.43,1685.17,211.08Z"/><path class="cls-30" d="M1685.17,211.08a26.91,26.91,0,0,1-18.88,0c-1.26,1.19-3.09,2.94-4.92,4.87,9.25,2.34,21.52,5.24,35.12,8.27-.47-.8-1-1.7-1.51-2.43C1692.43,218.05,1687.69,213.43,1685.17,211.08Z"/><path class="cls-31" d="M1692.31,206.51c1.17,3.2,2.42,6.28,2.42,6.28l5.44,12.25c10.4,2.29,21.45,4.63,32.42,6.85a60.89,60.89,0,0,0,8.84-31c-12.54,1.08-37.53,3.38-48.65,5.18Z"/><path class="cls-32" d="M1692.31,206.51c1.17,3.2,2.42,6.28,2.42,6.28l5.44,12.25c10.4,2.29,21.45,4.63,32.42,6.85a60.89,60.89,0,0,0,8.84-31c-12.54,1.08-37.53,3.38-48.65,5.18Z"/><path class="cls-33" d="M1692.31,206.51c1.17,3.2,2.42,6.28,2.42,6.28l5.44,12.25c10.4,2.29,21.45,4.63,32.42,6.85a60.89,60.89,0,0,0,8.84-31c-12.54,1.08-37.53,3.38-48.65,5.18Z"/><path class="cls-34" d="M1995.49,541.89h4V541h-21.94Z"/><path class="cls-35" d="M1995.49,541.89h4V541h-21.94Z"/><path class="cls-36" d="M1995.49,541.89h4V541h-21.94Z"/><path class="cls-37" d="M1246.79,417.78l74.38-9.48h58.54l87-5.79s87-19,91.78-22.64S1693,341.42,1693,341.42,1825.94,314,1835.43,314s99.69-4.21,99.69-4.21h64.38V249.65l-36.65,2c-10.62.58-25.55.33-42.25-.39A46.07,46.07,0,0,1,1891,262H1603.6a45.46,45.46,0,0,1-7.7-.67H1300.7a59,59,0,0,1-58.19-49.2c-16.74,2.51-37.33,6-44.28,8.83-5.12,2.1-28.76,6.27-56.77,11.08,1.06,3.79,2.08,7.6,3,11.46,18.06,72.36,4.55,132.24-10,190l24.84,3.15C1197.57,427.66,1246.79,417.78,1246.79,417.78Z"/><path class="cls-38" d="M1246.79,417.78l74.38-9.48h58.54l87-5.79s87-19,91.78-22.64S1693,341.42,1693,341.42,1825.94,314,1835.43,314s99.69-4.21,99.69-4.21h64.38V249.65l-36.65,2c-10.62.58-25.55.33-42.25-.39A46.07,46.07,0,0,1,1891,262H1603.6a45.46,45.46,0,0,1-7.7-.67H1300.7a59,59,0,0,1-58.19-49.2c-16.74,2.51-37.33,6-44.28,8.83-5.12,2.1-28.76,6.27-56.77,11.08,1.06,3.79,2.08,7.6,3,11.46,18.06,72.36,4.55,132.24-10,190l24.84,3.15C1197.57,427.66,1246.79,417.78,1246.79,417.78Z"/><path class="cls-39" d="M1246.79,417.78l74.38-9.48h58.54l87-5.79s87-19,91.78-22.64S1693,341.42,1693,341.42,1825.94,314,1835.43,314s99.69-4.21,99.69-4.21h64.38V249.65l-36.65,2c-10.62.58-25.55.33-42.25-.39A46.07,46.07,0,0,1,1891,262H1603.6a45.46,45.46,0,0,1-7.7-.67H1300.7a59,59,0,0,1-58.19-49.2c-16.74,2.51-37.33,6-44.28,8.83-5.12,2.1-28.76,6.27-56.77,11.08,1.06,3.79,2.08,7.6,3,11.46,18.06,72.36,4.55,132.24-10,190l24.84,3.15C1197.57,427.66,1246.79,417.78,1246.79,417.78Z"/><path class="cls-40" d="M1134.51,433.51q-1.26,5-2.54,10c7.54-2.09,17.06-4.45,27.38-6.88Z"/><path class="cls-41" d="M1134.51,433.51q-1.26,5-2.54,10c7.54-2.09,17.06-4.45,27.38-6.88Z"/><path class="cls-42" d="M1134.51,433.51q-1.26,5-2.54,10c7.54-2.09,17.06-4.45,27.38-6.88Z"/><path class="cls-43" d="M1134.51,433.51q-1.26,5-2.54,10c7.54-2.09,17.06-4.45,27.38-6.88Z"/><path class="cls-44" d="M1558.92,217.32a44.82,44.82,0,0,1,1-9.4c-19.83-1.41-42.87-10.94-61.38-15.28-21.67-5.08-77.39-6.11-89.78,0s-142.42,16.19-142.42,16.19-10.73,1.37-23.83,3.33a59,59,0,0,0,58.19,49.2h295.2A44.69,44.69,0,0,1,1558.92,217.32Z"/><path class="cls-45" d="M1558.92,217.32a44.82,44.82,0,0,1,1-9.4c-19.83-1.41-42.87-10.94-61.38-15.28-21.67-5.08-77.39-6.11-89.78,0s-142.42,16.19-142.42,16.19-10.73,1.37-23.83,3.33a59,59,0,0,0,58.19,49.2h295.2A44.69,44.69,0,0,1,1558.92,217.32Z"/><path class="cls-46" d="M1558.92,217.32a44.82,44.82,0,0,1,1-9.4c-19.83-1.41-42.87-10.94-61.38-15.28-21.67-5.08-77.39-6.11-89.78,0s-142.42,16.19-142.42,16.19-10.73,1.37-23.83,3.33a59,59,0,0,0,58.19,49.2h295.2A44.69,44.69,0,0,1,1558.92,217.32Z"/><path class="cls-47" d="M1558.92,217.32a44.82,44.82,0,0,1,1-9.4c-19.83-1.41-42.87-10.94-61.38-15.28-21.67-5.08-77.39-6.11-89.78,0s-142.42,16.19-142.42,16.19-10.73,1.37-23.83,3.33a59,59,0,0,0,58.19,49.2h295.2A44.69,44.69,0,0,1,1558.92,217.32Z"/><path class="cls-48" d="M1732.59,231.89a61.1,61.1,0,0,1-52.29,29.44h-84.4a45.46,45.46,0,0,0,7.7.67H1891a46.07,46.07,0,0,0,29.65-10.75c-41.69-1.78-94.41-6.42-118.72-8.11C1786.71,242.08,1759.88,237.39,1732.59,231.89Z"/><path class="cls-49" d="M1732.59,231.89a61.1,61.1,0,0,1-52.29,29.44h-84.4a45.46,45.46,0,0,0,7.7.67H1891a46.07,46.07,0,0,0,29.65-10.75c-41.69-1.78-94.41-6.42-118.72-8.11C1786.71,242.08,1759.88,237.39,1732.59,231.89Z"/><path class="cls-50" d="M1732.59,231.89a61.1,61.1,0,0,1-52.29,29.44h-84.4a45.46,45.46,0,0,0,7.7.67H1891a46.07,46.07,0,0,0,29.65-10.75c-41.69-1.78-94.41-6.42-118.72-8.11C1786.71,242.08,1759.88,237.39,1732.59,231.89Z"/><path class="cls-51" d="M1732.59,231.89a61.1,61.1,0,0,1-52.29,29.44h-84.4a45.46,45.46,0,0,0,7.7.67H1891a46.07,46.07,0,0,0,29.65-10.75c-41.69-1.78-94.41-6.42-118.72-8.11C1786.71,242.08,1759.88,237.39,1732.59,231.89Z"/><path class="cls-52" d="M1732.59,231.89c-11-2.22-22-4.56-32.42-6.85l.13.28c2.51.33,4.49,3,4.49,6.1a6.82,6.82,0,0,1-1.64,4.52c0,.1,0,.19,0,.29,0,3.81-1.66,6.89-3.7,6.89s-3.69-3.08-3.69-6.89c0-.37,0-.72,0-1.08a7,7,0,0,1-1-3.73,6.42,6.42,0,0,1,2.71-5.43c-.2-.37-.56-1-1-1.77-13.6-3-25.87-5.93-35.12-8.27a50.64,50.64,0,0,0-4.89,5.84c-1,1.41-2.09,3.44-2.5,4.2a6.42,6.42,0,0,1,2.71,5.43,7,7,0,0,1-1,3.73c0,.36,0,.71,0,1.08,0,3.81-1.65,6.89-3.69,6.89s-3.7-3.08-3.7-6.89c0-.1,0-.19,0-.29a6.82,6.82,0,0,1-1.64-4.52c0-3.15,2-5.77,4.49-6.1l4.79-10.77c-2.18-.57-4.11-1.1-5.74-1.57-24.76-7.11-58.81-7.12-80.48-5.1a59.39,59.39,0,0,1-9.81,0,44.68,44.68,0,0,0,36,53.41h84.4A61.1,61.1,0,0,0,1732.59,231.89Z"/><path class="cls-53" d="M1732.59,231.89c-11-2.22-22-4.56-32.42-6.85l.13.28c2.51.33,4.49,3,4.49,6.1a6.82,6.82,0,0,1-1.64,4.52c0,.1,0,.19,0,.29,0,3.81-1.66,6.89-3.7,6.89s-3.69-3.08-3.69-6.89c0-.37,0-.72,0-1.08a7,7,0,0,1-1-3.73,6.42,6.42,0,0,1,2.71-5.43c-.2-.37-.56-1-1-1.77-13.6-3-25.87-5.93-35.12-8.27a50.64,50.64,0,0,0-4.89,5.84c-1,1.41-2.09,3.44-2.5,4.2a6.42,6.42,0,0,1,2.71,5.43,7,7,0,0,1-1,3.73c0,.36,0,.71,0,1.08,0,3.81-1.65,6.89-3.69,6.89s-3.7-3.08-3.7-6.89c0-.1,0-.19,0-.29a6.82,6.82,0,0,1-1.64-4.52c0-3.15,2-5.77,4.49-6.1l4.79-10.77c-2.18-.57-4.11-1.1-5.74-1.57-24.76-7.11-58.81-7.12-80.48-5.1a59.39,59.39,0,0,1-9.81,0,44.68,44.68,0,0,0,36,53.41h84.4A61.1,61.1,0,0,0,1732.59,231.89Z"/><path class="cls-54" d="M1732.59,231.89c-11-2.22-22-4.56-32.42-6.85l.13.28c2.51.33,4.49,3,4.49,6.1a6.82,6.82,0,0,1-1.64,4.52c0,.1,0,.19,0,.29,0,3.81-1.66,6.89-3.7,6.89s-3.69-3.08-3.69-6.89c0-.37,0-.72,0-1.08a7,7,0,0,1-1-3.73,6.42,6.42,0,0,1,2.71-5.43c-.2-.37-.56-1-1-1.77-13.6-3-25.87-5.93-35.12-8.27a50.64,50.64,0,0,0-4.89,5.84c-1,1.41-2.09,3.44-2.5,4.2a6.42,6.42,0,0,1,2.71,5.43,7,7,0,0,1-1,3.73c0,.36,0,.71,0,1.08,0,3.81-1.65,6.89-3.69,6.89s-3.7-3.08-3.7-6.89c0-.1,0-.19,0-.29a6.82,6.82,0,0,1-1.64-4.52c0-3.15,2-5.77,4.49-6.1l4.79-10.77c-2.18-.57-4.11-1.1-5.74-1.57-24.76-7.11-58.81-7.12-80.48-5.1a59.39,59.39,0,0,1-9.81,0,44.68,44.68,0,0,0,36,53.41h84.4A61.1,61.1,0,0,0,1732.59,231.89Z"/><path class="cls-55" d="M1732.59,231.89c-11-2.22-22-4.56-32.42-6.85l.13.28c2.51.33,4.49,3,4.49,6.1a6.82,6.82,0,0,1-1.64,4.52c0,.1,0,.19,0,.29,0,3.81-1.66,6.89-3.7,6.89s-3.69-3.08-3.69-6.89c0-.37,0-.72,0-1.08a7,7,0,0,1-1-3.73,6.42,6.42,0,0,1,2.71-5.43c-.2-.37-.56-1-1-1.77-13.6-3-25.87-5.93-35.12-8.27a50.64,50.64,0,0,0-4.89,5.84c-1,1.41-2.09,3.44-2.5,4.2a6.42,6.42,0,0,1,2.71,5.43,7,7,0,0,1-1,3.73c0,.36,0,.71,0,1.08,0,3.81-1.65,6.89-3.69,6.89s-3.7-3.08-3.7-6.89c0-.1,0-.19,0-.29a6.82,6.82,0,0,1-1.64-4.52c0-3.15,2-5.77,4.49-6.1l4.79-10.77c-2.18-.57-4.11-1.1-5.74-1.57-24.76-7.11-58.81-7.12-80.48-5.1a59.39,59.39,0,0,1-9.81,0,44.68,44.68,0,0,0,36,53.41h84.4A61.1,61.1,0,0,0,1732.59,231.89Z"/><path class="cls-56" d="M1732.59,231.89c-11-2.22-22-4.56-32.42-6.85l.13.28c2.51.33,4.49,3,4.49,6.1a6.82,6.82,0,0,1-1.64,4.52c0,.1,0,.19,0,.29,0,3.81-1.66,6.89-3.7,6.89s-3.69-3.08-3.69-6.89c0-.37,0-.72,0-1.08a7,7,0,0,1-1-3.73,6.42,6.42,0,0,1,2.71-5.43c-.2-.37-.56-1-1-1.77-13.6-3-25.87-5.93-35.12-8.27a50.64,50.64,0,0,0-4.89,5.84c-1,1.41-2.09,3.44-2.5,4.2a6.42,6.42,0,0,1,2.71,5.43,7,7,0,0,1-1,3.73c0,.36,0,.71,0,1.08,0,3.81-1.65,6.89-3.69,6.89s-3.7-3.08-3.7-6.89c0-.1,0-.19,0-.29a6.82,6.82,0,0,1-1.64-4.52c0-3.15,2-5.77,4.49-6.1l4.79-10.77c-2.18-.57-4.11-1.1-5.74-1.57-24.76-7.11-58.81-7.12-80.48-5.1a59.39,59.39,0,0,1-9.81,0,44.68,44.68,0,0,0,36,53.41h84.4A61.1,61.1,0,0,0,1732.59,231.89Z"/><path class="cls-57" d="M1835.43,314c-9.49,0-142.41,27.38-142.41,27.38s-129.75,34.76-134.5,38.45-91.78,22.64-91.78,22.64l-87,5.79h-58.54l-74.38,9.48s-49.22,9.88-87.44,18.88c47.77,6,125.74,15.84,136.83,17.44,14.45,2.08,101.13,10.43,136.21,10.08s55.73,19.13,99.07,19.83,84.61,20.87,106.8,22.95c17.59,1.66,58.21,15.11,113.36,26.86,10.11,0,20.78,0,32.38.18,47.57.59,90.64,2.44,150,5,16.26.7,30.92,1.38,43.56,2h21.94V309.83h-64.38S1844.93,314,1835.43,314Z"/><path class="cls-58" d="M1835.43,314c-9.49,0-142.41,27.38-142.41,27.38s-129.75,34.76-134.5,38.45-91.78,22.64-91.78,22.64l-87,5.79h-58.54l-74.38,9.48s-49.22,9.88-87.44,18.88c47.77,6,125.74,15.84,136.83,17.44,14.45,2.08,101.13,10.43,136.21,10.08s55.73,19.13,99.07,19.83,84.61,20.87,106.8,22.95c17.59,1.66,58.21,15.11,113.36,26.86,10.11,0,20.78,0,32.38.18,47.57.59,90.64,2.44,150,5,16.26.7,30.92,1.38,43.56,2h21.94V309.83h-64.38S1844.93,314,1835.43,314Z"/><path class="cls-59" d="M1835.43,314c-9.49,0-142.41,27.38-142.41,27.38s-129.75,34.76-134.5,38.45-91.78,22.64-91.78,22.64l-87,5.79h-58.54l-74.38,9.48s-49.22,9.88-87.44,18.88c47.77,6,125.74,15.84,136.83,17.44,14.45,2.08,101.13,10.43,136.21,10.08s55.73,19.13,99.07,19.83,84.61,20.87,106.8,22.95c17.59,1.66,58.21,15.11,113.36,26.86,10.11,0,20.78,0,32.38.18,47.57.59,90.64,2.44,150,5,16.26.7,30.92,1.38,43.56,2h21.94V309.83h-64.38S1844.93,314,1835.43,314Z"/><path class="cls-60" d="M1835.43,314c-9.49,0-142.41,27.38-142.41,27.38s-129.75,34.76-134.5,38.45-91.78,22.64-91.78,22.64l-87,5.79h-58.54l-74.38,9.48s-49.22,9.88-87.44,18.88c47.77,6,125.74,15.84,136.83,17.44,14.45,2.08,101.13,10.43,136.21,10.08s55.73,19.13,99.07,19.83,84.61,20.87,106.8,22.95c17.59,1.66,58.21,15.11,113.36,26.86,10.11,0,20.78,0,32.38.18,47.57.59,90.64,2.44,150,5,16.26.7,30.92,1.38,43.56,2h21.94V309.83h-64.38S1844.93,314,1835.43,314Z"/><path class="cls-40" d="M1237,539c75.49-1.39,67.93-2.67,114-3,47.57-.34,65.42,1,164,1h12c117.41-.08,159.09-3.08,224.62-3.18-55.15-11.75-95.77-25.2-113.36-26.86-22.19-2.08-63.46-22.25-106.8-22.95s-64-20.17-99.07-19.83-121.76-8-136.21-10.08c-11.09-1.6-89.06-11.4-136.83-17.44-10.32,2.43-19.84,4.79-27.38,6.88-8.1,32.06-16,63.64-18.34,96.55L1143,540C1166.57,539.91,1197.72,539.72,1237,539Z"/><path class="cls-61" d="M1237,539c75.49-1.39,67.93-2.67,114-3,47.57-.34,65.42,1,164,1h12c117.41-.08,159.09-3.08,224.62-3.18-55.15-11.75-95.77-25.2-113.36-26.86-22.19-2.08-63.46-22.25-106.8-22.95s-64-20.17-99.07-19.83-121.76-8-136.21-10.08c-11.09-1.6-89.06-11.4-136.83-17.44-10.32,2.43-19.84,4.79-27.38,6.88-8.1,32.06-16,63.64-18.34,96.55L1143,540C1166.57,539.91,1197.72,539.72,1237,539Z"/><path class="cls-62" d="M1237,539c75.49-1.39,67.93-2.67,114-3,47.57-.34,65.42,1,164,1h12c117.41-.08,159.09-3.08,224.62-3.18-55.15-11.75-95.77-25.2-113.36-26.86-22.19-2.08-63.46-22.25-106.8-22.95s-64-20.17-99.07-19.83-121.76-8-136.21-10.08c-11.09-1.6-89.06-11.4-136.83-17.44-10.32,2.43-19.84,4.79-27.38,6.88-8.1,32.06-16,63.64-18.34,96.55L1143,540C1166.57,539.91,1197.72,539.72,1237,539Z"/><path class="cls-63" d="M1237,539c75.49-1.39,67.93-2.67,114-3,47.57-.34,65.42,1,164,1h12c117.41-.08,159.09-3.08,224.62-3.18-55.15-11.75-95.77-25.2-113.36-26.86-22.19-2.08-63.46-22.25-106.8-22.95s-64-20.17-99.07-19.83-121.76-8-136.21-10.08c-11.09-1.6-89.06-11.4-136.83-17.44-10.32,2.43-19.84,4.79-27.38,6.88-8.1,32.06-16,63.64-18.34,96.55L1143,540C1166.57,539.91,1197.72,539.72,1237,539Z"/><path class="cls-64" d="M1237,539c75.49-1.39,67.93-2.67,114-3,47.57-.34,65.42,1,164,1h12c117.41-.08,159.09-3.08,224.62-3.18-55.15-11.75-95.77-25.2-113.36-26.86-22.19-2.08-63.46-22.25-106.8-22.95s-64-20.17-99.07-19.83-121.76-8-136.21-10.08c-11.09-1.6-89.06-11.4-136.83-17.44-10.32,2.43-19.84,4.79-27.38,6.88-8.1,32.06-16,63.64-18.34,96.55L1143,540C1166.57,539.91,1197.72,539.72,1237,539Z"/><path class="cls-65" d="M1999.5,542.1l-4-.21-17.93-.89c-12.64-.62-27.3-1.3-43.56-2-59.36-2.56-102.43-4.41-150-5-11.6-.14-22.27-.2-32.38-.18-65.53.1-107.21,3.1-224.62,3.18h-12c-98.58,0-116.43-1.34-164-1-46.07.33-38.51,1.61-114,3-39.28.72-70.43.91-94,1l-29.37.09c-2.26,31.41.5,64,12.87,99.41C1230,935.59,1685.05,990.55,1894,1000H1999.5Z"/><path class="cls-66" d="M1999.5,542.1l-4-.21-17.93-.89c-12.64-.62-27.3-1.3-43.56-2-59.36-2.56-102.43-4.41-150-5-11.6-.14-22.27-.2-32.38-.18-65.53.1-107.21,3.1-224.62,3.18h-12c-98.58,0-116.43-1.34-164-1-46.07.33-38.51,1.61-114,3-39.28.72-70.43.91-94,1l-29.37.09c-2.26,31.41.5,64,12.87,99.41C1230,935.59,1685.05,990.55,1894,1000H1999.5Z"/><path class="cls-67" d="M1946.59,70.84a73.06,73.06,0,0,0-71.68,59l-1.35,0a40.34,40.34,0,0,0-18.86,4.65,40.52,40.52,0,0,0-53.91-5.85,61.86,61.86,0,0,1,40.89,19.62A57.53,57.53,0,0,1,1877,171.57a46.33,46.33,0,0,1,59.3,53.43h63.19V93.55A72.77,72.77,0,0,0,1946.59,70.84Z"/><path class="cls-68" d="M1946.59,70.84a73.06,73.06,0,0,0-71.68,59l-1.35,0a40.34,40.34,0,0,0-18.86,4.65,40.52,40.52,0,0,0-53.91-5.85,61.86,61.86,0,0,1,40.89,19.62A57.53,57.53,0,0,1,1877,171.57a46.33,46.33,0,0,1,59.3,53.43h63.19V93.55A72.77,72.77,0,0,0,1946.59,70.84Z"/><path class="cls-69" d="M1795.08,133.58a45.92,45.92,0,0,0-24.87,13.08c24.13-.08,52.24.21,50.85,1.8-1.26,1.44-19.6,3.38-38.56,4.9a43.41,43.41,0,0,1,.56,6c.15,3.27,5.32,27.5,6.45,32.78,14.56-.3,27-.58,27-.58s6,0,5.75.64-10.75,3.11-12.25,3.36c-1.08.18-30.52,2.43-48.25,3.77A46.06,46.06,0,0,0,1803.05,225h133.26a46.32,46.32,0,0,0-59.3-53.43,57.53,57.53,0,0,0-35.33-23.35,61.86,61.86,0,0,0-40.89-19.62A41,41,0,0,0,1795.08,133.58Z"/><path class="cls-70" d="M1795.08,133.58a45.92,45.92,0,0,0-24.87,13.08c24.13-.08,52.24.21,50.85,1.8-1.26,1.44-19.6,3.38-38.56,4.9a43.41,43.41,0,0,1,.56,6c.15,3.27,5.32,27.5,6.45,32.78,14.56-.3,27-.58,27-.58s6,0,5.75.64-10.75,3.11-12.25,3.36c-1.08.18-30.52,2.43-48.25,3.77A46.06,46.06,0,0,0,1803.05,225h133.26a46.32,46.32,0,0,0-59.3-53.43,57.53,57.53,0,0,0-35.33-23.35,61.86,61.86,0,0,0-40.89-19.62A41,41,0,0,0,1795.08,133.58Z"/><path class="cls-71" d="M1795.08,133.58a45.92,45.92,0,0,0-24.87,13.08c24.13-.08,52.24.21,50.85,1.8-1.26,1.44-19.6,3.38-38.56,4.9a43.41,43.41,0,0,1,.56,6c.15,3.27,5.32,27.5,6.45,32.78,14.56-.3,27-.58,27-.58s6,0,5.75.64-10.75,3.11-12.25,3.36c-1.08.18-30.52,2.43-48.25,3.77A46.06,46.06,0,0,0,1803.05,225h133.26a46.32,46.32,0,0,0-59.3-53.43,57.53,57.53,0,0,0-35.33-23.35,61.86,61.86,0,0,0-40.89-19.62A41,41,0,0,0,1795.08,133.58Z"/><path class="cls-72" d="M1757,178.94a46.28,46.28,0,0,0,2.08,13.75c6.41-.1,14.14-.24,21.83-.4,0-5.16,0-32.33.59-38.85-6,.48-12.06.92-17.61,1.28A45.72,45.72,0,0,0,1757,178.94Z"/><path class="cls-73" d="M1757,178.94a46.28,46.28,0,0,0,2.08,13.75c6.41-.1,14.14-.24,21.83-.4,0-5.16,0-32.33.59-38.85-6,.48-12.06.92-17.61,1.28A45.72,45.72,0,0,0,1757,178.94Z"/><path class="cls-74" d="M1757,178.94a46.28,46.28,0,0,0,2.08,13.75c6.41-.1,14.14-.24,21.83-.4,0-5.16,0-32.33.59-38.85-6,.48-12.06.92-17.61,1.28A45.72,45.72,0,0,0,1757,178.94Z"/><path class="cls-75" d="M1822.23,192.18c.25-.61-5.75-.64-5.75-.64s-12.41.28-27,.58c-1.13-5.28-6.3-29.51-6.45-32.78a43.41,43.41,0,0,0-.56-6c19-1.52,37.3-3.46,38.56-4.9,1.39-1.59-26.72-1.88-50.85-1.8-16.4.06-31,.29-33.15.39-10.13.5-19,.37-26.22.17-7.9-.23-13.95-.53-17.72-.22-3.07-2.67-8.43-4.54-17.39-4.54s-14.32,1.87-17.39,4.54c-7.24-.61-22.81,1.09-43.94.05-1.07-.05-5.08-.13-10.8-.21-23.29-.3-75.08-.52-73.2,1.62,1.26,1.44,19.6,3.38,38.56,4.9a43.41,43.41,0,0,0-.56,6c-.15,3.27-5.32,27.5-6.45,32.78-14.56-.3-27-.58-27-.58s-6,0-5.75.64,10.75,3.11,12.25,3.36c.62.1,10.51.88,22.18,1.78,16.68,1.29,37,2.82,39.07,3s21.45,1.77,37.92,3.53a.35.35,0,0,0,0,.11c.62,1.22,3.06,1.36,6.51.62,4.5.53,8.5,1,11.5,1.53l.46.43c-1.17,3.2-2.42,6.28-2.42,6.28l-.78,1.76-4.79,10.77c-2.51.33-4.49,3-4.49,6.1a6.82,6.82,0,0,0,1.64,4.52c0,.1,0,.19,0,.29,0,3.81,1.66,6.89,3.7,6.89s3.69-3.08,3.69-6.89c0-.37,0-.72,0-1.08a7,7,0,0,0,1-3.73A6.42,6.42,0,0,0,1654,226c.41-.76,1.54-2.79,2.5-4.2a50.64,50.64,0,0,1,4.89-5.84c1.83-1.93,3.66-3.68,4.92-4.87a26.91,26.91,0,0,0,18.88,0c2.52,2.35,7.26,7,9.81,10.71.5.73,1,1.63,1.51,2.43s.79,1.4,1,1.77a6.42,6.42,0,0,0-2.71,5.43,7,7,0,0,0,1,3.73c0,.36,0,.71,0,1.08,0,3.81,1.66,6.89,3.69,6.89s3.7-3.08,3.7-6.89c0-.1,0-.19,0-.29a6.82,6.82,0,0,0,1.64-4.52c0-3.15-2-5.77-4.49-6.1l-.13-.28-5.44-12.25s-1.25-3.08-2.42-6.28l.47-.43c11.12-1.8,36.11-4.1,48.65-5.18,3.89-.34,6.6-.56,7.3-.61l13-1c17.73-1.34,47.17-3.59,48.25-3.77C1811.48,195.29,1822,192.79,1822.23,192.18Zm-169.75-21.39c-3.22,4.75-4,13.17-2.23,20.81-8.36.21-37.67,1-43,1.19-3,.12-20-.17-36.67-.5,0-1,0-2.75,0-5,0-9.7-.14-28.54-.58-33.82,8.3.66,16.65,1.24,23.7,1.66,6.26.37,11.5.62,14.73.69,14.34.31,43.55,5.29,47.27,5.93a26.32,26.32,0,0,0,1.39,3.43C1655.12,167.15,1653.73,169.41,1652.48,170.79Zm128.42,21.5c-7.69.16-15.42.3-21.83.4-7.52.11-13.21.16-14.84.1l-3.26-.11c-9.44-.3-32.5-.9-39.76-1.08a34.26,34.26,0,0,0,.46-13.59c6.26-4.06,10.1-8.1,9.11-10s-6.25-1.21-13,1.35a43.73,43.73,0,0,0-3.41-4.18,26.32,26.32,0,0,0,1.39-3.43c2.41-.41,15.45-2.64,28.25-4.24,7-.88,14-1.58,19-1.69,4.24-.09,11.9-.49,20.82-1.07,5.55-.36,11.6-.8,17.61-1.28C1781,160,1780.9,187.13,1780.9,192.29Z"/><path class="cls-76" d="M1873.39,716s111.78-13.74,114-31.1S1907,665,1902.64,666.68,1815.43,706,1873.39,716Z"/><g class="cls-77"><path class="cls-78" d="M1876.87,496.74s39.71,31.78,61.18,0-7.51-123.15,32.21-115.21,10,139.48-17.18,151c-41.43,17.49-76.21-14.57-76.21-14.57Z"/><path class="cls-79" d="M1873.58,503.88s41.28,26.23,64.21,8c28.94-23,30.29-125.17,14.79-130.84"/><path class="cls-79" d="M1873.58,514.61s49.26,28.52,76.63,8.69c34.53-25,36.14-136.1,17.65-142.26"/></g><g class="cls-80"><path class="cls-78" d="M1868.81,283.82s22.7,21.21,35,0-4.29-82.17,18.4-76.87,5.73,93.07-9.81,100.73c-23.68,11.66-43.56-9.72-43.56-9.72Z"/><path class="cls-79" d="M1922.18,207s11,65.06-13.44,93.19c-17.17,19.75-43.14-8.95-43.14-8.95"/><path class="cls-79" d="M1913.53,207s9.33,59.89-11.39,85.79c-14.54,18.18-36.54-8.24-36.54-8.24"/></g><g class="cls-81"><path class="cls-78" d="M1866.75,428.69s-32.44,23.8-50,0,6.14-92.23-26.29-86.28-8.18,104.46,14,113.06c33.83,13.09,62.24-10.91,62.24-10.91Z"/><path class="cls-79" d="M1782.6,342s-.49,88.46,20.81,104c24.67,18,57.34,0,57.34,0"/><path class="cls-79" d="M1799,337.54s-.37,86.44,15.55,101c18.43,16.86,42.84,0,42.84,0"/></g><g class="cls-82"><path class="cls-78" d="M1903.89,459.63c0,138.62-2,258-32,255-66.76-6.62-49-112.38-49-251s12.36-251,39.43-251S1903.89,321,1903.89,459.63Z"/><path class="cls-79" d="M1868.81,204.13s23,136.85,24.08,292.5c.83,123.33-21.5,223.5-21.5,223.5"/><path class="cls-79" d="M1856,204.13s-35.22,164.5-21.08,376.5c8.21,123.06,19.78,134,19.78,134"/><path class="cls-79" d="M1862.32,207.13s8.89,161.5,5.87,373.5c-1.76,123.06-4.24,134-4.24,134"/></g><g class="cls-83"><path class="cls-76" d="M1902.64,665.68c-.68.27-3.36,1.45-7.14,3.28-4.74,29-12.12,45.81-23.61,44.67a52.48,52.48,0,0,1-12.89-2.88c3.27,1.71,8,3.16,14.39,4.27,0,0,111.78-13.74,114-31.1S1907,664,1902.64,665.68Z"/><path class="cls-84" d="M1895.5,669c5.35-32.77,7.33-81.1,8-136.6,13.42,4.81,30.81,7,49.56-.87C1980.27,520,2010.89,381,1971,388c-34,6-11.48,76-33,107.74-9.53,14.1-22.65,15.68-34.3,13.08.11-16.31.14-33.1.14-50.19,0-56.21-2.39-107.44-7-148.5a32.37,32.37,0,0,0,15.51-3.45C1927.91,299,1944,221,1928,216c-22.25-6.95-12,45.62-24.22,66.82-2.71,4.69-5.93,7.3-9.3,8.53-7-49.27-16-70.31-29.48-65.35-19,7-40.31,82.82-41.93,207.93a27.47,27.47,0,0,1-6.29-6.24c-17.53-23.8,4.5-86.76-23.78-79.69-28,7-10.69,97.87,11.51,106.47a57.3,57.3,0,0,0,18.38,3.85v4.31c0,128.84-15.33,229.28,36.11,248.12a52.48,52.48,0,0,0,12.89,2.88C1883.38,714.77,1890.76,697.94,1895.5,669Z"/></g></g></g></svg>