<svg id="cropped" xmlns="http://www.w3.org/2000/svg" xmlns:xlink="http://www.w3.org/1999/xlink" viewBox="0 0 1608.36 796.43"><defs><style>.cls-1{fill:none;}.cls-2{clip-path:url(#clip-path);}.cls-3{fill:url(#linear-gradient);}.cls-4{fill:url(#linear-gradient-3);}.cls-5{fill:url(#linear-gradient-4);}.cls-6{fill:url(#linear-gradient-5);}.cls-7{fill:url(#linear-gradient-6);}.cls-8{fill:url(#linear-gradient-7);}.cls-9{fill:url(#linear-gradient-8);}.cls-10{fill:url(#linear-gradient-9);}.cls-11{fill:url(#linear-gradient-10);}.cls-12{fill:url(#linear-gradient-11);}.cls-13{fill:url(#linear-gradient-12);}.cls-14{fill:url(#linear-gradient-13);}.cls-15{fill:url(#linear-gradient-14);}.cls-16{fill:url(#linear-gradient-15);}.cls-17{fill:url(#linear-gradient-16);}.cls-18{fill:url(#linear-gradient-17);}.cls-19{fill:url(#linear-gradient-18);}.cls-20{fill:url(#linear-gradient-19);}.cls-21{fill:url(#linear-gradient-20);}.cls-22{fill:url(#linear-gradient-21);}.cls-23{fill:url(#linear-gradient-22);}.cls-24{fill:url(#linear-gradient-23);}.cls-25{fill:url(#linear-gradient-24);}.cls-26{fill:url(#linear-gradient-25);}.cls-27{fill:url(#linear-gradient-26);}.cls-28{fill:#5e6066;}.cls-29{fill:url(#linear-gradient-27);}.cls-30{fill:url(#linear-gradient-28);}.cls-31{fill:url(#linear-gradient-29);}</style><clipPath id="clip-path" transform="translate(138.23 28.43)"><rect class="cls-1" width="1366" height="768"/></clipPath><linearGradient id="linear-gradient" y1="384" x2="1366" y2="384" gradientUnits="userSpaceOnUse"><stop offset="0" stop-color="#152aea" stop-opacity="0.5"/><stop offset="1" stop-color="#fff"/></linearGradient><linearGradient id="linear-gradient-3" y1="384" x2="1366" y2="384" gradientUnits="userSpaceOnUse"><stop offset="0" stop-color="#0edd4d" stop-opacity="0.05"/><stop offset="1" stop-color="#fff"/></linearGradient><linearGradient id="linear-gradient-4" y1="222.5" x2="1366" y2="222.5" gradientUnits="userSpaceOnUse"><stop offset="0" stop-color="#ecef89" stop-opacity="0.05"/><stop offset="1" stop-color="#fff"/></linearGradient><linearGradient id="linear-gradient-5" x1="178.03" y1="623.03" x2="1083.53" y2="-282.47" gradientUnits="userSpaceOnUse"><stop offset="0" stop-color="#125bdd" stop-opacity="0.05"/><stop offset="1" stop-color="#fff"/></linearGradient><linearGradient id="linear-gradient-6" x1="788.4" y1="384" x2="1366" y2="384" gradientUnits="userSpaceOnUse"><stop offset="0" stop-color="#98f4e3" stop-opacity="0.25"/><stop offset="1" stop-color="#fff" stop-opacity="0.05"/></linearGradient><linearGradient id="linear-gradient-7" x1="-138.23" y1="218.63" x2="139.18" y2="218.63" gradientUnits="userSpaceOnUse"><stop offset="0" stop-color="#1d35dd" stop-opacity="0.5"/><stop offset="1" stop-color="#fff" stop-opacity="0"/></linearGradient><linearGradient id="linear-gradient-8" x1="2786.25" y1="25.21" x2="2919.58" y2="158.53" gradientTransform="matrix(-1, 0, 0, 1, 3639.54, 0)" xlink:href="#linear-gradient-7"/><linearGradient id="linear-gradient-9" x1="473.44" y1="127.11" x2="656.3" y2="232.68" xlink:href="#linear-gradient-7"/><linearGradient id="linear-gradient-10" x1="995.44" y1="235.11" x2="1178.3" y2="340.68" gradientUnits="userSpaceOnUse"><stop offset="0" stop-color="#1d35dd" stop-opacity="0.15"/><stop offset="1" stop-color="#fff" stop-opacity="0"/></linearGradient><linearGradient id="linear-gradient-11" x1="160.44" y1="71.11" x2="343.3" y2="176.68" xlink:href="#linear-gradient-10"/><linearGradient id="linear-gradient-12" x1="1260.44" y1="408.11" x2="1443.3" y2="513.68" xlink:href="#linear-gradient-10"/><linearGradient id="linear-gradient-13" x1="677.44" y1="184.11" x2="860.3" y2="289.68" xlink:href="#linear-gradient-10"/><linearGradient id="linear-gradient-14" x1="525.44" y1="23.11" x2="708.3" y2="128.68" xlink:href="#linear-gradient-10"/><linearGradient id="linear-gradient-15" x1="1038.44" y1="99.11" x2="1221.3" y2="204.68" gradientUnits="userSpaceOnUse"><stop offset="0" stop-color="#1d35dd" stop-opacity="0.15"/><stop offset="0.04" stop-color="#263dde" stop-opacity="0.05"/><stop offset="1" stop-color="#fff" stop-opacity="0"/></linearGradient><linearGradient id="linear-gradient-16" x1="2.44" y1="363.11" x2="185.3" y2="468.68" xlink:href="#linear-gradient-15"/><linearGradient id="linear-gradient-17" x1="1061.84" y1="21.56" x2="1178.26" y2="137.98" gradientUnits="userSpaceOnUse"><stop offset="0" stop-color="#1d35dd" stop-opacity="0.25"/><stop offset="1" stop-color="#fff" stop-opacity="0"/></linearGradient><linearGradient id="linear-gradient-18" x1="455.84" y1="278.56" x2="572.26" y2="394.98" xlink:href="#linear-gradient-17"/><linearGradient id="linear-gradient-19" x1="442.43" y1="-13.78" x2="550.87" y2="94.66" xlink:href="#linear-gradient-7"/><linearGradient id="linear-gradient-20" x1="88.87" y1="210.34" x2="197.31" y2="318.77" xlink:href="#linear-gradient-7"/><linearGradient id="linear-gradient-21" x1="4.96" y1="32.14" x2="124.17" y2="151.35" xlink:href="#linear-gradient-10"/><linearGradient id="linear-gradient-22" x1="1258.07" y1="194.27" x2="1349.5" y2="102.84" xlink:href="#linear-gradient-7"/><linearGradient id="linear-gradient-23" x1="222.25" y1="73.68" x2="280.89" y2="15.04" xlink:href="#linear-gradient-7"/><linearGradient id="linear-gradient-24" x1="2624.78" y1="155.09" x2="2713.25" y2="66.62" gradientTransform="matrix(-1, 0, 0, 1, 3628.97, 0)" xlink:href="#linear-gradient-7"/><linearGradient id="linear-gradient-25" x1="228.95" y1="270.62" x2="363.91" y2="135.67" xlink:href="#linear-gradient-17"/><linearGradient id="linear-gradient-26" x1="1220.95" y1="333.62" x2="1355.91" y2="198.67" xlink:href="#linear-gradient-7"/><linearGradient id="linear-gradient-27" x1="82.99" y1="190.11" x2="417.99" y2="190.11" gradientTransform="translate(34.44 -44.87) rotate(9.15)" gradientUnits="userSpaceOnUse"><stop offset="0" stop-color="#1d35dd" stop-opacity="0.25"/><stop offset="0.97" stop-color="#f9f9fe" stop-opacity="0.01"/><stop offset="1" stop-color="#fff" stop-opacity="0"/></linearGradient><linearGradient id="linear-gradient-28" x1="82.99" y1="190.11" x2="417.99" y2="190.11" gradientTransform="translate(34.44 -44.87) rotate(9.15)" gradientUnits="userSpaceOnUse"><stop offset="0.48" stop-color="#ddf47a" stop-opacity="0.15"/><stop offset="0.97" stop-color="#f9f9fe" stop-opacity="0.01"/><stop offset="1" stop-color="#fff" stop-opacity="0"/></linearGradient><linearGradient id="linear-gradient-29" x1="207.8" y1="203.11" x2="390.66" y2="308.68" gradientTransform="matrix(-1, 0, 0, 1, 595.36, 0)" gradientUnits="userSpaceOnUse"><stop offset="0" stop-color="#1d35dd" stop-opacity="0.35"/><stop offset="1" stop-color="#fff" stop-opacity="0"/></linearGradient></defs><title>landingPage</title><g class="cls-2"><path class="cls-3" d="M0,768H1366V0L1233.79,438.06a105.26,105.26,0,0,1-77.88,72.33Z" transform="translate(138.23 28.43)"/><path class="cls-3" d="M0,768H1366V0L1233.79,438.06a105.26,105.26,0,0,1-77.88,72.33Z" transform="translate(138.23 28.43)"/><path class="cls-4" d="M0,768H1366V0L1233.79,438.06a105.26,105.26,0,0,1-77.88,72.33Z" transform="translate(138.23 28.43)"/><path class="cls-5" d="M1253.15,327.58,0,445V0H1366l-54.46,274.87A65.8,65.8,0,0,1,1253.15,327.58Z" transform="translate(138.23 28.43)"/><path class="cls-6" d="M1253.15,327.58,0,445V0H1366l-54.46,274.87A65.8,65.8,0,0,1,1253.15,327.58Z" transform="translate(138.23 28.43)"/><path class="cls-7" d="M808.05,261,1366,768V0H815L788.86,209.1A60,60,0,0,0,808.05,261Z" transform="translate(138.23 28.43)"/><path class="cls-8" d="M139.18,230.57a35.81,35.81,0,0,0-46.55-34.15,44.73,44.73,0,0,0-64-10.48,39.28,39.28,0,0,0-18.49-4.59A39.41,39.41,0,0,0-15.76,191a47.68,47.68,0,0,0-38.95-20.13,47.73,47.73,0,0,0-47.09,40,28.41,28.41,0,0,0-8.09-1.17A28.33,28.33,0,0,0-138.23,238a28.34,28.34,0,0,0,28.34,28.34c.5,0,1,0,1.49,0v0H106.37v-.12A35.8,35.8,0,0,0,139.18,230.57Z" transform="translate(138.23 28.43)"/><path class="cls-9" d="M695.9,56a32.39,32.39,0,0,1,7.49.87,40.71,40.71,0,0,1,21.45-15.42,52.85,52.85,0,0,1,94.69,7.21,40.65,40.65,0,0,1,64.63,21,25.48,25.48,0,0,1,2.78-.15A25.74,25.74,0,0,1,891,120.68V121H695.9a32.52,32.52,0,1,1,0-65Z" transform="translate(138.23 28.43)"/><path class="cls-10" d="M652,146.68a31.49,31.49,0,0,0-7.18.83,39,39,0,0,0-52.14-10.67,50.65,50.65,0,0,0-88.75-5.39,39,39,0,0,0-32.34,28.36,23.58,23.58,0,0,0-2.66-.15,24.67,24.67,0,0,0-3.9,49V209H652a31.16,31.16,0,0,0,0-62.32Z" transform="translate(138.23 28.43)"/><path class="cls-11" d="M1174,254.68a31.49,31.49,0,0,0-7.18.83,39,39,0,0,0-52.14-10.67,50.65,50.65,0,0,0-88.75-5.39,39,39,0,0,0-32.34,28.36,23.58,23.58,0,0,0-2.66-.15,24.67,24.67,0,0,0-3.9,49V317h187a31.16,31.16,0,1,0,0-62.32Z" transform="translate(138.23 28.43)"/><path class="cls-12" d="M339,90.68a31.49,31.49,0,0,0-7.18.83,39,39,0,0,0-52.14-10.67,50.65,50.65,0,0,0-88.75-5.39,39,39,0,0,0-32.34,28.36,23.58,23.58,0,0,0-2.66-.15,24.67,24.67,0,0,0-3.9,49V153H339a31.16,31.16,0,0,0,0-62.32Z" transform="translate(138.23 28.43)"/><path class="cls-13" d="M1439,427.68a31.49,31.49,0,0,0-7.18.83,39,39,0,0,0-52.14-10.67,50.65,50.65,0,0,0-88.75-5.39,39,39,0,0,0-32.34,28.36,23.58,23.58,0,0,0-2.66-.15,24.67,24.67,0,0,0-3.9,49V490h187a31.16,31.16,0,1,0,0-62.32Z" transform="translate(138.23 28.43)"/><path class="cls-14" d="M856,203.68a31.49,31.49,0,0,0-7.18.83,39,39,0,0,0-52.14-10.67,50.65,50.65,0,0,0-88.75-5.39,39,39,0,0,0-32.34,28.36,23.58,23.58,0,0,0-2.66-.15,24.67,24.67,0,0,0-3.9,49V266H856a31.16,31.16,0,0,0,0-62.32Z" transform="translate(138.23 28.43)"/><path class="cls-15" d="M704,42.68a31.49,31.49,0,0,0-7.18.83,39,39,0,0,0-52.14-10.67,50.65,50.65,0,0,0-88.75-5.39,39,39,0,0,0-32.34,28.36,23.58,23.58,0,0,0-2.66-.15,24.67,24.67,0,0,0-3.9,49V105H704a31.16,31.16,0,0,0,0-62.32Z" transform="translate(138.23 28.43)"/><path class="cls-16" d="M1217,118.68a31.49,31.49,0,0,0-7.18.83,39,39,0,0,0-52.14-10.67,50.65,50.65,0,0,0-88.75-5.39,39,39,0,0,0-32.34,28.36,23.58,23.58,0,0,0-2.66-.15,24.67,24.67,0,0,0-3.9,49V181h187a31.16,31.16,0,1,0,0-62.32Z" transform="translate(138.23 28.43)"/><path class="cls-17" d="M181,382.68a31.49,31.49,0,0,0-7.18.83,39,39,0,0,0-52.14-10.67,50.65,50.65,0,0,0-88.75-5.39A39,39,0,0,0,.56,395.81a23.58,23.58,0,0,0-2.66-.15,24.67,24.67,0,0,0-24.67,24.67A24.67,24.67,0,0,0-6,444.69V445H181a31.16,31.16,0,1,0,0-62.32Z" transform="translate(138.23 28.43)"/><path class="cls-18" d="M1208.8,67.12a47.78,47.78,0,0,0,.61-7.62,47.28,47.28,0,0,0-87.31-25.14,38.1,38.1,0,0,0-4.81-.31,36.18,36.18,0,0,0-25.45,10.4,36.37,36.37,0,0,0-61.55,21.49,21,21,0,0,0-3.91-.38,20.61,20.61,0,0,0-1.21,41.18v0h174.55v0c.4,0,.8,0,1.21,0a20.61,20.61,0,0,0,7.87-39.66Z" transform="translate(138.23 28.43)"/><path class="cls-19" d="M602.8,324.12a47.78,47.78,0,0,0,.61-7.62,47.28,47.28,0,0,0-87.31-25.14,38.1,38.1,0,0,0-4.81-.31,36.18,36.18,0,0,0-25.45,10.4,36.37,36.37,0,0,0-61.55,21.49,21,21,0,0,0-3.91-.38,20.61,20.61,0,0,0-1.21,41.18v0H593.72v0c.4,0,.8,0,1.21,0a20.61,20.61,0,0,0,7.87-39.66Z" transform="translate(138.23 28.43)"/><path class="cls-20" d="M577.94,21.24a19.13,19.13,0,0,0-14,6.1,23.76,23.76,0,0,0-9.69-11.62V15.6A44,44,0,0,0,470.82-4.13,33.88,33.88,0,0,0,421.2,22.15a19.2,19.2,0,1,0-7,37.45v0H576.81v0c.38,0,.75,0,1.13,0a19.2,19.2,0,1,0,0-38.39Z" transform="translate(138.23 28.43)"/><path class="cls-21" d="M224.38,245.36a19.13,19.13,0,0,0-14,6.1,23.77,23.77,0,0,0-9.69-11.62v-.12A44,44,0,0,0,117.26,220a33.88,33.88,0,0,0-49.62,26.28,19.19,19.19,0,1,0-7,37.44v0H223.25v0c.38,0,.75,0,1.13,0a19.2,19.2,0,1,0,0-38.39Z" transform="translate(138.23 28.43)"/><path class="cls-22" d="M154.25,70.86A20.82,20.82,0,0,0,139,77.49a25.8,25.8,0,0,0-35.93-13.56,40.56,40.56,0,0,0-75-11.82A33.17,33.17,0,0,0-22.79,71a22.43,22.43,0,0,0-2.33-.13A20.88,20.88,0,0,0-46,91.75a20.88,20.88,0,0,0,20.88,20.88c.42,0,.83,0,1.23,0v0H153v0c.41,0,.81,0,1.23,0a20.89,20.89,0,0,0,0-41.77Z" transform="translate(138.23 28.43)"/><path class="cls-23" d="M1363.69,126.29a22.21,22.21,0,0,0-10.09,2.41,23.9,23.9,0,0,0-3.88-2.64,35.74,35.74,0,0,0-70.42-1.62l-.66,0a19.76,19.76,0,0,0-9.23,2.28,19.84,19.84,0,0,0-29.17-.43,22.53,22.53,0,0,0,3.9,44.73h119.55a22.36,22.36,0,1,0,0-44.71Z" transform="translate(138.23 28.43)"/><path class="cls-24" d="M296.07,32.28a14.28,14.28,0,0,0-6.49,1.55,15.39,15.39,0,0,0-19.39-.24,22.67,22.67,0,0,0,.29-3.62,23,23,0,0,0-43.61-10.11A21.3,21.3,0,1,0,219.2,61h76.87a14.38,14.38,0,0,0,0-28.75Z" transform="translate(138.23 28.43)"/><path class="cls-25" d="M892.83,92.63A21.61,21.61,0,0,1,902.62,95a23.17,23.17,0,0,1,29.25-.36,35.08,35.08,0,0,1-.43-5.46,34.66,34.66,0,0,1,65.78-15.26A32.13,32.13,0,1,1,1008.8,136h-116a21.69,21.69,0,1,1,0-43.37Z" transform="translate(138.23 28.43)"/><path class="cls-26" d="M390,174.17a30.22,30.22,0,0,0-9,1.38,37.17,37.17,0,0,0-22.83-15.09,40.07,40.07,0,0,0-45.49-9.41,46.65,46.65,0,0,0-81.23,5.83,30.83,30.83,0,0,0-41.11,23,28.87,28.87,0,0,0,14,54.15H390a29.92,29.92,0,0,0,0-59.83Z" transform="translate(138.23 28.43)"/><path class="cls-27" d="M1382,237.17a30.22,30.22,0,0,0-9,1.38,37.17,37.17,0,0,0-22.83-15.09,40.07,40.07,0,0,0-45.49-9.41,46.65,46.65,0,0,0-81.23,5.83,30.83,30.83,0,0,0-41.11,23,28.87,28.87,0,0,0,14,54.15H1382a29.92,29.92,0,0,0,0-59.83Z" transform="translate(138.23 28.43)"/><path class="cls-28" d="M402.06,217.27a6.7,6.7,0,0,0-1.2-2.49l16.84-10.62-12.55-2.59a48.78,48.78,0,0,0-5.84.77c-.74.19-3.44,1-6.33,1.94l33-53.93-25.76-4.07a67.79,67.79,0,0,0-9.6,5.14c-4.84,3.14-67.05,41.72-67.05,41.72a95.06,95.06,0,0,1-11.6,4.57l-55.89-7.32-.36-.08,48.33-15.26,6.84-7.06-5.76-.39L290.88,173l-63.13,11c-20.34-5-73.45-17.34-110.47-19.85-8.14-.55-15.44,5.89-15.44,5.89s-19.69,8.86-19.9,12c-.35,5.18,8.66,17.36,32.57,23,14.57,3.46,41,9.23,59.45,13.21L172,224.75a4.45,4.45,0,0,0,3,5.53l19,3.57.74-2.48,5.78.78,0-.08,3,.57,2.23-7.47-1.13-.47c9.35,3,17.78,5.69,19.43,6,4,.85,41.37,12.64,41.37,12.64l21.27,2,9.45-11.5s-4-.85-5.72-1-4.72,1.42-4.72,1.42l-14.86,5.93L252.5,229.45l4.65.55s27.14.68,36.43.16c6.86-.39,58.3-2.8,84.76-4l8.81,2,10.94.74L395,224.93C397.23,223.76,402.75,220.54,402.06,217.27Z" transform="translate(138.23 28.43)"/><path class="cls-29" d="M402.06,217.27a6.7,6.7,0,0,0-1.2-2.49l16.84-10.62-12.55-2.59a48.78,48.78,0,0,0-5.84.77c-.74.19-3.44,1-6.33,1.94l33-53.93-25.76-4.07a67.79,67.79,0,0,0-9.6,5.14c-4.84,3.14-67.05,41.72-67.05,41.72a95.06,95.06,0,0,1-11.6,4.57l-55.89-7.32-.36-.08,48.33-15.26,6.84-7.06-5.76-.39L290.88,173l-63.13,11c-20.34-5-73.45-17.34-110.47-19.85-8.14-.55-15.44,5.89-15.44,5.89s-19.69,8.86-19.9,12c-.35,5.18,8.66,17.36,32.57,23,14.57,3.46,41,9.23,59.45,13.21L172,224.75a4.45,4.45,0,0,0,3,5.53l19,3.57.74-2.48,5.78.78,0-.08,3,.57,2.23-7.47-1.13-.47c9.35,3,17.78,5.69,19.43,6,4,.85,41.37,12.64,41.37,12.64l21.27,2,9.45-11.5s-4-.85-5.72-1-4.72,1.42-4.72,1.42l-14.86,5.93L252.5,229.45l4.65.55s27.14.68,36.43.16c6.86-.39,58.3-2.8,84.76-4l8.81,2,10.94.74L395,224.93C397.23,223.76,402.75,220.54,402.06,217.27Z" transform="translate(138.23 28.43)"/><path class="cls-30" d="M402.06,217.27a6.7,6.7,0,0,0-1.2-2.49l16.84-10.62-12.55-2.59a48.78,48.78,0,0,0-5.84.77c-.74.19-3.44,1-6.33,1.94l33-53.93-25.76-4.07a67.79,67.79,0,0,0-9.6,5.14c-4.84,3.14-67.05,41.72-67.05,41.72a95.06,95.06,0,0,1-11.6,4.57l-55.89-7.32-.36-.08,48.33-15.26,6.84-7.06-5.76-.39L290.88,173l-63.13,11c-20.34-5-73.45-17.34-110.47-19.85-8.14-.55-15.44,5.89-15.44,5.89s-19.69,8.86-19.9,12c-.35,5.18,8.66,17.36,32.57,23,14.57,3.46,41,9.23,59.45,13.21L172,224.75a4.45,4.45,0,0,0,3,5.53l19,3.57.74-2.48,5.78.78,0-.08,3,.57,2.23-7.47-1.13-.47c9.35,3,17.78,5.69,19.43,6,4,.85,41.37,12.64,41.37,12.64l21.27,2,9.45-11.5s-4-.85-5.72-1-4.72,1.42-4.72,1.42l-14.86,5.93L252.5,229.45l4.65.55s27.14.68,36.43.16c6.86-.39,58.3-2.8,84.76-4l8.81,2,10.94.74L395,224.93C397.23,223.76,402.75,220.54,402.06,217.27Z" transform="translate(138.23 28.43)"/><path class="cls-31" d="M209,222.68a31.49,31.49,0,0,1,7.18.83,39,39,0,0,1,52.14-10.67,50.65,50.65,0,0,1,88.75-5.39,39,39,0,0,1,32.34,28.36,23.58,23.58,0,0,1,2.66-.15,24.67,24.67,0,0,1,3.9,49V285H209a31.16,31.16,0,0,1,0-62.32Z" transform="translate(138.23 28.43)"/></g></svg>