<svg id="cropped" xmlns="http://www.w3.org/2000/svg" xmlns:xlink="http://www.w3.org/1999/xlink" viewBox="0 0 2000 1000.02"><defs><style>.cls-1{fill:url(#linear-gradient);}.cls-2{fill:url(#linear-gradient-3);}.cls-3{fill:url(#linear-gradient-4);}.cls-4{fill:url(#linear-gradient-5);}.cls-5{fill:url(#linear-gradient-6);}.cls-6{fill:url(#linear-gradient-7);}.cls-7{fill:url(#linear-gradient-8);}.cls-8{fill:url(#linear-gradient-9);}.cls-9{fill:url(#linear-gradient-10);}.cls-10{fill:url(#linear-gradient-11);}.cls-11{fill:url(#linear-gradient-12);}.cls-12{fill:url(#linear-gradient-13);}.cls-13{fill:url(#linear-gradient-14);}.cls-14{fill:url(#linear-gradient-15);}.cls-15{fill:url(#linear-gradient-16);}.cls-16{fill:url(#linear-gradient-17);}.cls-17{fill:url(#linear-gradient-18);}.cls-18{fill:url(#linear-gradient-19);}.cls-19{fill:url(#linear-gradient-20);}.cls-20{fill:url(#linear-gradient-21);}.cls-21{fill:url(#linear-gradient-22);}.cls-22{fill:url(#linear-gradient-23);}.cls-23{fill:url(#linear-gradient-24);}.cls-24{fill:url(#linear-gradient-25);}.cls-25{fill:url(#linear-gradient-26);}.cls-26{fill:#5e6066;}.cls-27{fill:url(#linear-gradient-27);}.cls-28{fill:url(#linear-gradient-28);}.cls-29{fill:url(#linear-gradient-29);}</style><linearGradient id="linear-gradient" y1="500" x2="2000" y2="500" gradientUnits="userSpaceOnUse"><stop offset="0" stop-color="#152aea" stop-opacity="0.5"/><stop offset="1" stop-color="#fff"/></linearGradient><linearGradient id="linear-gradient-3" x1="8.96" y1="500" x2="2000" y2="500" gradientUnits="userSpaceOnUse"><stop offset="0" stop-color="#0edd4d" stop-opacity="0.05"/><stop offset="1" stop-color="#fff"/></linearGradient><linearGradient id="linear-gradient-4" x1="8.96" y1="289.71" x2="1783.12" y2="289.71" gradientUnits="userSpaceOnUse"><stop offset="0" stop-color="#ecef89" stop-opacity="0.05"/><stop offset="1" stop-color="#fff"/></linearGradient><linearGradient id="linear-gradient-5" x1="248.62" y1="810.18" x2="1425.41" y2="-366.62" gradientUnits="userSpaceOnUse"><stop offset="0" stop-color="#125bdd" stop-opacity="0.05"/><stop offset="1" stop-color="#fff"/></linearGradient><linearGradient id="linear-gradient-6" x1="1154.32" y1="500" x2="2000" y2="500" gradientUnits="userSpaceOnUse"><stop offset="0" stop-color="#98f4e3" stop-opacity="0.25"/><stop offset="1" stop-color="#fff" stop-opacity="0.05"/></linearGradient><linearGradient id="linear-gradient-7" x1="15.44" y1="275.13" x2="377.55" y2="275.13" gradientUnits="userSpaceOnUse"><stop offset="0" stop-color="#1d35dd" stop-opacity="0.5"/><stop offset="1" stop-color="#fff" stop-opacity="0"/></linearGradient><linearGradient id="linear-gradient-8" x1="3113.23" y1="33.08" x2="3287.2" y2="207.06" gradientTransform="matrix(-1, 0, 0, 1, 4273.54, 0)" xlink:href="#linear-gradient-7"/><linearGradient id="linear-gradient-9" x1="747.71" y1="165.21" x2="986.37" y2="303" xlink:href="#linear-gradient-7"/><linearGradient id="linear-gradient-10" x1="1478.42" y1="306.21" x2="1717.08" y2="444" gradientUnits="userSpaceOnUse"><stop offset="0" stop-color="#1d35dd" stop-opacity="0.15"/><stop offset="1" stop-color="#fff" stop-opacity="0"/></linearGradient><linearGradient id="linear-gradient-11" x1="209.44" y1="92.43" x2="448.09" y2="230.22" xlink:href="#linear-gradient-10"/><linearGradient id="linear-gradient-12" x1="1697.44" y1="528.21" x2="1936.09" y2="666" xlink:href="#linear-gradient-10"/><linearGradient id="linear-gradient-13" x1="1154.88" y1="239.21" x2="1393.54" y2="377" xlink:href="#linear-gradient-10"/><linearGradient id="linear-gradient-14" x1="685.88" y1="29.93" x2="924.54" y2="167.72" xlink:href="#linear-gradient-10"/><linearGradient id="linear-gradient-15" x1="1355.51" y1="128.89" x2="1594.17" y2="266.68" gradientUnits="userSpaceOnUse"><stop offset="0" stop-color="#1d35dd" stop-opacity="0.15"/><stop offset="0.04" stop-color="#263dde" stop-opacity="0.05"/><stop offset="1" stop-color="#fff" stop-opacity="0"/></linearGradient><linearGradient id="linear-gradient-16" x1="131.48" y1="468.21" x2="370.14" y2="606" xlink:href="#linear-gradient-15"/><linearGradient id="linear-gradient-17" x1="1470.66" y1="27.93" x2="1622.57" y2="179.84" gradientUnits="userSpaceOnUse"><stop offset="0" stop-color="#1d35dd" stop-opacity="0.25"/><stop offset="1" stop-color="#fff" stop-opacity="0"/></linearGradient><linearGradient id="linear-gradient-18" x1="876.74" y1="362.56" x2="1028.66" y2="514.48" xlink:href="#linear-gradient-17"/><linearGradient id="linear-gradient-19" x1="548.67" y1="18.9" x2="690.17" y2="160.4" xlink:href="#linear-gradient-7"/><linearGradient id="linear-gradient-20" x1="116.03" y1="273.72" x2="257.53" y2="415.22" xlink:href="#linear-gradient-7"/><linearGradient id="linear-gradient-21" x1="104.06" y1="35.68" x2="259.63" y2="191.25" xlink:href="#linear-gradient-10"/><linearGradient id="linear-gradient-22" x1="1764.67" y1="253.42" x2="1883.96" y2="134.13" xlink:href="#linear-gradient-7"/><linearGradient id="linear-gradient-23" x1="290.13" y1="96.02" x2="366.65" y2="19.5" xlink:href="#linear-gradient-7"/><linearGradient id="linear-gradient-24" x1="2882.52" y1="201.99" x2="2997.96" y2="86.54" gradientTransform="matrix(-1, 0, 0, 1, 4262.97, 0)" xlink:href="#linear-gradient-7"/><linearGradient id="linear-gradient-25" x1="298.91" y1="352.57" x2="475" y2="176.48" xlink:href="#linear-gradient-17"/><linearGradient id="linear-gradient-26" x1="1715.24" y1="433.88" x2="1891.33" y2="257.79" xlink:href="#linear-gradient-7"/><linearGradient id="linear-gradient-27" x1="102.02" y1="284.25" x2="539.3" y2="284.25" gradientTransform="translate(56.93 -93.83) rotate(9.15)" gradientUnits="userSpaceOnUse"><stop offset="0" stop-color="#1d35dd" stop-opacity="0.25"/><stop offset="0.97" stop-color="#f9f9fe" stop-opacity="0.01"/><stop offset="1" stop-color="#fff" stop-opacity="0"/></linearGradient><linearGradient id="linear-gradient-28" x1="102.02" y1="284.25" x2="539.3" y2="284.25" gradientTransform="translate(56.93 -93.83) rotate(9.15)" gradientUnits="userSpaceOnUse"><stop offset="0.48" stop-color="#ddf47a" stop-opacity="0.15"/><stop offset="0.97" stop-color="#f9f9fe" stop-opacity="0.01"/><stop offset="1" stop-color="#fff" stop-opacity="0"/></linearGradient><linearGradient id="linear-gradient-29" x1="697.83" y1="264.21" x2="936.48" y2="402" gradientTransform="matrix(-1, 0, 0, 1, 1229.36, 0)" gradientUnits="userSpaceOnUse"><stop offset="0" stop-color="#1d35dd" stop-opacity="0.35"/><stop offset="1" stop-color="#fff" stop-opacity="0"/></linearGradient></defs><title>landingPage</title><path class="cls-1" d="M0,1000H2000V0L1806.43,570.39c-16.09,47.41-59.68,83.41-114,94.18Z" transform="translate(0 0.02)"/><path class="cls-1" d="M0,1000H2000V0L1806.43,570.39c-16.09,47.41-59.68,83.41-114,94.18Z" transform="translate(0 0.02)"/><path class="cls-2" d="M9,1000H2000V0L1807.29,570.39c-16,47.41-59.41,83.41-113.52,94.18Z" transform="translate(0 0.02)"/><path class="cls-3" d="M1636.54,426.53,9,579.43V0H1783.12l-70.74,357.9A85.51,85.51,0,0,1,1636.54,426.53Z" transform="translate(0 0.02)"/><path class="cls-4" d="M1645.46,426.53,17.87,579.43V0H1792L1721.3,357.9A85.51,85.51,0,0,1,1645.46,426.53Z" transform="translate(0 0.02)"/><path class="cls-5" d="M1183.09,339.77,2000,1000V0H1193.27L1155,272.26C1151.45,297.49,1161.93,322.67,1183.09,339.77Z" transform="translate(0 0.02)"/><path class="cls-6" d="M377.55,290.66a46.77,46.77,0,0,0-60.76-44.46,58.5,58.5,0,0,0-83.5-13.65,51.74,51.74,0,0,0-58,6.65A62.35,62.35,0,0,0,63,265a36.91,36.91,0,1,0-10.56,72.26c.66,0,1.3,0,2,0v0H334.72v-.16A46.66,46.66,0,0,0,377.55,290.66Z" transform="translate(0 0.02)"/><path class="cls-7" d="M954.89,73.32a42.63,42.63,0,0,1,9.78,1.13,53.16,53.16,0,0,1,28-20.07,69.07,69.07,0,0,1,123.6,9.39,53.12,53.12,0,0,1,84.37,27.39,33.52,33.52,0,0,1,8.93,66.42V158H954.89a42.34,42.34,0,1,1,0-84.68Z" transform="translate(0 0.02)"/><path class="cls-8" d="M980.74,190.85a41.35,41.35,0,0,0-9.37,1.08,50.93,50.93,0,0,0-68.06-13.88,66.19,66.19,0,0,0-115.84-7,50.87,50.87,0,0,0-42.23,36.92,33.17,33.17,0,0,0-3.47-.18,32.12,32.12,0,0,0-5.09,63.84v.4H980.74a40.58,40.58,0,1,0,0-81.15Z" transform="translate(0 0.02)"/><path class="cls-9" d="M1711.46,331.85a41.37,41.37,0,0,0-9.38,1.08A50.93,50.93,0,0,0,1634,319.05a66.19,66.19,0,0,0-115.84-7A50.87,50.87,0,0,0,1476,348.94a33.37,33.37,0,0,0-3.48-.18,32.12,32.12,0,0,0-5.08,63.84v.4h244.06a40.58,40.58,0,1,0,0-81.15Z" transform="translate(0 0.02)"/><path class="cls-10" d="M442.47,118.07a40.73,40.73,0,0,0-9.37,1.08A51,51,0,0,0,365,105.26a66.19,66.19,0,0,0-115.84-7A50.84,50.84,0,0,0,207,135.16a33.21,33.21,0,0,0-3.48-.19,32.12,32.12,0,0,0-5.08,63.85v.4H442.47a40.58,40.58,0,1,0,0-81.15Z" transform="translate(0 0.02)"/><path class="cls-11" d="M1930.47,553.85a41.28,41.28,0,0,0-9.37,1.08A50.94,50.94,0,0,0,1853,541.05a66.19,66.19,0,0,0-115.84-7A50.87,50.87,0,0,0,1695,570.94a33.17,33.17,0,0,0-3.47-.18,32.12,32.12,0,0,0-5.09,63.84v.4h244.06a40.58,40.58,0,1,0,0-81.15Z" transform="translate(0 0.02)"/><path class="cls-12" d="M1387.91,264.85a41.35,41.35,0,0,0-9.37,1.08,50.94,50.94,0,0,0-68.07-13.88,66.19,66.19,0,0,0-115.84-7,50.87,50.87,0,0,0-42.22,36.92,33.17,33.17,0,0,0-3.47-.18,32.12,32.12,0,0,0-5.09,63.84v.4h244.06a40.58,40.58,0,1,0,0-81.15Z" transform="translate(0 0.02)"/><path class="cls-13" d="M918.91,55.57a40.79,40.79,0,0,0-9.37,1.08,51,51,0,0,0-68.07-13.89,66.19,66.19,0,0,0-115.84-7,50.84,50.84,0,0,0-42.22,36.92,33.17,33.17,0,0,0-3.47-.19,32.12,32.12,0,0,0-5.09,63.85v.4H918.91a40.58,40.58,0,1,0,0-81.15Z" transform="translate(0 0.02)"/><path class="cls-14" d="M1588.54,154.53a40.79,40.79,0,0,0-9.37,1.08,51,51,0,0,0-68.06-13.89,66.2,66.2,0,0,0-115.85-7A50.84,50.84,0,0,0,1353,171.62a33.17,33.17,0,0,0-3.47-.19,32.12,32.12,0,0,0-5.09,63.84v.41h244.06a40.58,40.58,0,1,0,0-81.15Z" transform="translate(0 0.02)"/><path class="cls-15" d="M364.52,493.85a41.22,41.22,0,0,0-9.37,1.08,50.94,50.94,0,0,0-68.07-13.88,66.19,66.19,0,0,0-115.84-7A50.87,50.87,0,0,0,129,510.94a33.22,33.22,0,0,0-3.48-.18,32.12,32.12,0,0,0-5.08,63.84v.4H364.52a40.58,40.58,0,1,0,0-81.15Z" transform="translate(0 0.02)"/><path class="cls-16" d="M1662.49,87.4a61.72,61.72,0,0,0-113.17-42.65,46.39,46.39,0,0,0-6.27-.42,47.39,47.39,0,0,0-33.23,13.54,47.5,47.5,0,0,0-80.34,28,26.83,26.83,0,1,0-6.69,53.12V139h227.85V139c.52,0,1,.05,1.58.05a26.82,26.82,0,0,0,10.27-51.63Z" transform="translate(0 0.02)"/><path class="cls-17" d="M1068.58,422a61.72,61.72,0,0,0-113.17-42.66,48.12,48.12,0,0,0-6.28-.41,47.36,47.36,0,0,0-33.23,13.54,47.5,47.5,0,0,0-80.33,28,27.75,27.75,0,0,0-5.11-.49,26.83,26.83,0,0,0-1.58,53.62v.05h227.84v-.05c.53,0,1.06.05,1.59.05A26.82,26.82,0,0,0,1068.58,422Z" transform="translate(0 0.02)"/><path class="cls-18" d="M725.53,64.66a25,25,0,0,0-18.3,7.94,31,31,0,0,0-12.65-15.13v-.16A57.51,57.51,0,0,0,585.71,31.63a44.25,44.25,0,0,0-64.78,34.21,25,25,0,1,0-9.1,48.76v.05H724.06v-.05c.49,0,1,.05,1.47.05a25,25,0,1,0,0-50Z" transform="translate(0 0.02)"/><path class="cls-19" d="M292.89,319.48a25,25,0,0,0-18.3,7.94,31,31,0,0,0-12.65-15.13v-.16a57.51,57.51,0,0,0-108.87-25.68,44.25,44.25,0,0,0-64.78,34.21,25.3,25.3,0,0,0-7.62-1.18,25,25,0,0,0-1.48,49.94v.05H291.42v-.05c.49,0,1,.05,1.47.05a25,25,0,1,0,0-50Z" transform="translate(0 0.02)"/><path class="cls-20" d="M298.9,86.27A27.19,27.19,0,0,0,279,94.9a33.74,33.74,0,0,0-46.91-17.66,53,53,0,0,0-97.9-15.39A43.35,43.35,0,0,0,67.81,86.44a27.69,27.69,0,0,0-3-.17,27.19,27.19,0,1,0,0,54.38c.54,0,1.07,0,1.6-.05v.05H297.3v-.05c.53,0,1.07.05,1.6.05a27.19,27.19,0,1,0,0-54.38Z" transform="translate(0 0.02)"/><path class="cls-21" d="M1902.51,164.79a29.16,29.16,0,0,0-13.18,3.13,31.31,31.31,0,0,0-5.06-3.44,46.67,46.67,0,0,0-91.92-2.11l-.87,0a25.81,25.81,0,0,0-12,3,25.93,25.93,0,0,0-38.07-.55,29.34,29.34,0,0,0,5.08,58.24h156.06a29.11,29.11,0,1,0,0-58.21Z" transform="translate(0 0.02)"/><path class="cls-22" d="M386.47,42a18.66,18.66,0,0,0-8.47,2,20.1,20.1,0,0,0-25.31-.31,30.54,30.54,0,0,0,.37-4.71,30,30,0,0,0-56.92-13.17,27.75,27.75,0,1,0-10,53.6H386.47a18.72,18.72,0,1,0,0-37.43Z" transform="translate(0 0.02)"/><path class="cls-23" d="M1235.12,120.53a28.14,28.14,0,0,1,12.78,3,30.31,30.31,0,0,1,38.18-.48,45.26,45.26,0,0,1,85.31-27,41.86,41.86,0,1,1,15.1,80.88H1235.12a28.24,28.24,0,1,1,0-56.47Z" transform="translate(0 0.02)"/><path class="cls-24" d="M509.1,226.78a39.47,39.47,0,0,0-11.77,1.8,48.51,48.51,0,0,0-29.8-19.64,52.42,52.42,0,0,0-59.38-12.26,61,61,0,0,0-106,7.59,40.31,40.31,0,0,0-53.67,29.9,37.59,37.59,0,0,0,18.22,70.52H509.1a39,39,0,1,0,0-77.91Z" transform="translate(0 0.02)"/><path class="cls-25" d="M1925.43,308.09a39,39,0,0,0-11.76,1.81,48.53,48.53,0,0,0-29.81-19.65A52.42,52.42,0,0,0,1824.48,278a61,61,0,0,0-106,7.6,40.28,40.28,0,0,0-53.67,29.9A37.58,37.58,0,0,0,1683,386h242.42a39,39,0,1,0,0-77.91Z" transform="translate(0 0.02)"/><path class="cls-26" d="M524.81,282.91a8.67,8.67,0,0,0-1.55-3.24l22-13.83-16.38-3.37a62.47,62.47,0,0,0-7.62,1c-1,.25-4.49,1.34-8.26,2.53L556,195.76l-33.62-5.29a88.51,88.51,0,0,0-12.54,6.69c-6.32,4.09-87.51,54.33-87.51,54.33a125.85,125.85,0,0,1-15.15,5.95l-73-9.54-.47-.1,63.08-19.88,8.93-9.18-7.51-.51-18.6,7-82.41,14.39c-26.56-6.5-95.88-22.58-144.2-25.85-10.63-.72-20.15,7.67-20.15,7.67S107.23,233,107,237c-.46,6.75,11.3,22.61,42.51,30,19,4.5,53.54,12,77.6,17.19l-2.52,8.43a5.78,5.78,0,0,0,3.89,7.2l24.86,4.65,1-3.23,7.53,1,0-.1,3.94.73,2.91-9.72-1.49-.61c12.22,3.93,23.22,7.41,25.37,7.86,5.21,1.11,54,16.46,54,16.46l27.76,2.64,12.35-15s-5.21-1.1-7.47-1.25-6.16,1.84-6.16,1.84l-19.41,7.72-24-14.09,6.06.71s35.43.89,47.56.2c8.95-.5,76.09-3.63,110.64-5.24L505.35,297l14.28,1-4.1-5.12C518.51,291.35,525.72,287.17,524.81,282.91Z" transform="translate(0 0.02)"/><path class="cls-27" d="M524.81,282.91a8.67,8.67,0,0,0-1.55-3.24l22-13.83-16.38-3.37a62.47,62.47,0,0,0-7.62,1c-1,.25-4.49,1.34-8.26,2.53L556,195.76l-33.62-5.29a88.51,88.51,0,0,0-12.54,6.69c-6.32,4.09-87.51,54.33-87.51,54.33a125.85,125.85,0,0,1-15.15,5.95l-73-9.54-.47-.1,63.08-19.88,8.93-9.18-7.51-.51-18.6,7-82.41,14.39c-26.56-6.5-95.88-22.58-144.2-25.85-10.63-.72-20.15,7.67-20.15,7.67S107.23,233,107,237c-.46,6.75,11.3,22.61,42.51,30,19,4.5,53.54,12,77.6,17.19l-2.52,8.43a5.78,5.78,0,0,0,3.89,7.2l24.86,4.65,1-3.23,7.53,1,0-.1,3.94.73,2.91-9.72-1.49-.61c12.22,3.93,23.22,7.41,25.37,7.86,5.21,1.11,54,16.46,54,16.46l27.76,2.64,12.35-15s-5.21-1.1-7.47-1.25-6.16,1.84-6.16,1.84l-19.41,7.72-24-14.09,6.06.71s35.43.89,47.56.2c8.95-.5,76.09-3.63,110.64-5.24L505.35,297l14.28,1-4.1-5.12C518.51,291.35,525.72,287.17,524.81,282.91Z" transform="translate(0 0.02)"/><path class="cls-28" d="M524.81,282.91a8.67,8.67,0,0,0-1.55-3.24l22-13.83-16.38-3.37a62.47,62.47,0,0,0-7.62,1c-1,.25-4.49,1.34-8.26,2.53L556,195.76l-33.62-5.29a88.51,88.51,0,0,0-12.54,6.69c-6.32,4.09-87.51,54.33-87.51,54.33a125.85,125.85,0,0,1-15.15,5.95l-73-9.54-.47-.1,63.08-19.88,8.93-9.18-7.51-.51-18.6,7-82.41,14.39c-26.56-6.5-95.88-22.58-144.2-25.85-10.63-.72-20.15,7.67-20.15,7.67S107.23,233,107,237c-.46,6.75,11.3,22.61,42.51,30,19,4.5,53.54,12,77.6,17.19l-2.52,8.43a5.78,5.78,0,0,0,3.89,7.2l24.86,4.65,1-3.23,7.53,1,0-.1,3.94.73,2.91-9.72-1.49-.61c12.22,3.93,23.22,7.41,25.37,7.86,5.21,1.11,54,16.46,54,16.46l27.76,2.64,12.35-15s-5.21-1.1-7.47-1.25-6.16,1.84-6.16,1.84l-19.41,7.72-24-14.09,6.06.71s35.43.89,47.56.2c8.95-.5,76.09-3.63,110.64-5.24L505.35,297l14.28,1-4.1-5.12C518.51,291.35,525.72,287.17,524.81,282.91Z" transform="translate(0 0.02)"/><path class="cls-29" d="M298.5,289.85a41.28,41.28,0,0,1,9.37,1.08,50.94,50.94,0,0,1,68.07-13.88,66.19,66.19,0,0,1,115.84-7A50.87,50.87,0,0,1,534,306.94a33.17,33.17,0,0,1,3.47-.18,32.12,32.12,0,0,1,5.09,63.84v.4H298.5a40.58,40.58,0,1,1,0-81.15Z" transform="translate(0 0.02)"/></svg>