<svg id="Layer_1" data-name="Layer 1" xmlns="http://www.w3.org/2000/svg" xmlns:xlink="http://www.w3.org/1999/xlink" viewBox="0 0 2000 562.4"><defs><style>.cls-1{fill:url(#linear-gradient);}.cls-2{fill:#00d1ac;}.cls-3{fill:url(#linear-gradient-2);}.cls-4{fill:url(#linear-gradient-3);}.cls-5{fill:#037add;}.cls-6{fill:#ea4ecd;}.cls-7{fill:#0080ff;}</style><linearGradient id="linear-gradient" y1="281.2" x2="2000" y2="281.2" gradientUnits="userSpaceOnUse"><stop offset="0" stop-color="#797b7c" stop-opacity="0.3"/><stop offset="1" stop-color="#fff" stop-opacity="0.4"/></linearGradient><linearGradient id="linear-gradient-2" x1="1405.72" y1="240.96" x2="1793.66" y2="240.96" gradientUnits="userSpaceOnUse"><stop offset="0" stop-color="#3a9ced" stop-opacity="0.5"/><stop offset="1" stop-color="#fff" stop-opacity="0.3"/></linearGradient><linearGradient id="linear-gradient-3" x1="1404.17" y1="240.16" x2="1833" y2="240.16" gradientUnits="userSpaceOnUse"><stop offset="0" stop-color="#fff" stop-opacity="0.3"/><stop offset="0.79" stop-color="#5cf437" stop-opacity="0.5"/></linearGradient></defs><title>settings</title><path class="cls-1" d="M0,349,1010.07,557.82a220.87,220.87,0,0,0,163.61-30.15L2000,0H0Z"/><path class="cls-2" d="M1818.86,237.58c-14.53,49.24-85.72,43.46-147.94,134.48-31.24,45.72-26.7,66.81-49.31,76.21-60.31,25.09-216.61-73.63-215.17-210.69,1.15-110.26,92-206.21,206.21-206.21C1745.94,31.37,1838.54,170.87,1818.86,237.58Z"/><path class="cls-3" d="M1792.53,141.22c10.48,50.25-55,78.81-66.78,188.44-5.93,55,8,71.49-7.43,90.46-41.29,50.63-225.68,37.52-289.21-83.94C1378,238.47,1412.69,111,1513.34,57,1630.8-6,1778.34,73.13,1792.53,141.22Z"/><path class="cls-4" d="M1713.88,62.85c35.15,37.42-5.81,95.93,41.29,195.61,23.66,50.07,81,64.75,77.69,89C1824,412.2,1623,489.23,1505.47,418.73,1410.91,362,1374,235.14,1431.73,136.58,1499.09,21.56,1666.26,12.15,1713.88,62.85Z"/><circle class="cls-5" cx="1615.85" cy="312.46" r="12"/><circle class="cls-5" cx="1529.84" cy="257.61" r="12"/><circle class="cls-5" cx="1697.82" cy="202.76" r="12"/><circle class="cls-5" cx="1697.82" cy="120.48" r="12"/><path class="cls-6" d="M1503.07,324.08c-1.56,0-15.23-.28-24.85-9.77-6.11-6-9.21-14.21-9.21-24.33s3.1-18.3,9.21-24.32c9.72-9.59,23.59-9.77,24.89-9.77H1722.6c.05,0,9.53,0,15.49-6,3.43-3.42,5.17-8.39,5.17-14.77s-1.74-11.34-5.17-14.76c-5.95-5.94-15.39-6-15.53-6H1585.38a40.44,40.44,0,0,1-16.7-4.14c-7.93-4-17.39-12.38-17.39-30s9.46-26,17.39-30a40.53,40.53,0,0,1,16.7-4.13h82.27a27.64,27.64,0,0,0,11.08-2.9c6.51-3.4,9.68-9.24,9.68-17.86s-3.28-14.66-10-18a28,28,0,0,0-10.73-2.73H1530.53a6.67,6.67,0,1,1,0-13.33h137.12a40.53,40.53,0,0,1,16.7,4.13c7.93,4,17.39,12.39,17.39,30s-9.46,26-17.39,30a40.35,40.35,0,0,1-16.7,4.13h-82.27a28,28,0,0,0-11.07,2.9c-6.52,3.41-9.69,9.25-9.69,17.86,0,8.77,3.28,14.67,10,18a27.91,27.91,0,0,0,10.73,2.72h137.16c1.55,0,15.23.28,24.85,9.77,6.11,6,9.2,14.21,9.2,24.32s-3.09,18.3-9.2,24.33c-9.72,9.59-23.57,9.77-24.9,9.77H1503c-.06,0-9.54,0-15.5,6-3.43,3.42-5.17,8.39-5.17,14.76s1.74,11.35,5.17,14.77c6,5.94,15.39,6,15.53,6h192a6.67,6.67,0,0,1,0,13.34h-192Z"/><circle class="cls-7" cx="1694.39" cy="123.91" r="12"/><circle class="cls-7" cx="1694.39" cy="206.19" r="12"/><circle class="cls-7" cx="1526.41" cy="261.04" r="12"/><circle class="cls-7" cx="1612.8" cy="315.89" r="12"/></svg>